<?xml version="1.0" encoding="UTF-8"?>
<svg id="Calque_2" xmlns="http://www.w3.org/2000/svg" viewBox="0 0 290.54 307.21">
  <defs>
    <style>
      .cls-1 {
        fill: #fff;
      }

      .cls-1, .cls-2, .cls-3, .cls-4, .cls-5 {
        stroke: #000;
        stroke-miterlimit: 10;
      }

      .cls-2 {
        fill: #d45512;
      }

      .cls-6 {
        fill: #fafafa;
      }

      .cls-3 {
        fill: none;
      }

      .cls-4 {
        fill: #ff6a13;
      }

      .cls-5 {
        fill: #f4a3a3;
      }
    </style>
  </defs>
  <g id="Calque_1-2" data-name="Calque_1">
    <g>
      <path class="cls-4" d="M85.25,226.74l-3.9,45.68c18.11,13.83,36.21,15.6,59.33,9.75l-8.91-51.53-46.52-3.9Z"/>
      <path class="cls-4" d="M38.15,144.58l47.38,78.54-3.96,65.41c-.15,2.44-1.32,4.73-3.23,6.26-10.62,8.47-19.14,7.97-25.94.22-2.03-2.32-2.23-5.74-.36-8.2,5.19-6.85,9.05-13.3,7.55-18.12-2.03-20.23-6.35-39.62-13.82-57.88-7.89-26.4-10.43-53.23-7.63-66.22Z"/>
      <path class="cls-4" d="M211.57,260.27l-11.32,19.14c3.2,2.91,6.46,5.43,9.8,7.54,12.02,7.6,26.87,9.1,40.39,4.7,22.02-7.17,34.84-21.42,38.64-42.61,1.52-8.48,1.25-17.22-1.02-25.53-3.02-11.05-8.9-21.49-17.79-31.29-3.55-3.91-6.52-8.33-8.76-13.12-6.89-14.75-7.84-29.42,1.84-43.95,1.92-2.88,4.3-5.43,7-7.6,13.64-11,9.47-23.27-5.22-22.33-6.17.39-11.93,3.17-16.42,7.41-.38.36-.76.72-1.13,1.09-14.22,14.01-19.89,34.44-16.13,54.05,3.03,15.81,9.59,29.82,20.58,41.59,3.16,3.38,5.97,7.09,8.1,11.2,12.28,23.74,2.62,41.56-16,48.43-4.5,1.66-9.42,1.81-14.06.59-7.26-1.92-13.73-4.68-18.5-9.29Z"/>
      <path class="cls-4" d="M173.33,204.11c-30.68-2.6-43.23,14.94-46.02,43.33-.9,9.19,1.28,18.44,6.28,26.21,4.24,6.58,8.84,11.53,14.32,12.41,10.78,2.03,21.34,1.95,31.44-2.69-10.54,4.55-21.51,5.09-32.83,2.37-.75-.18-1.5-.37-2.25-.58-.92-.26-1.91-.18-2.75.27-.08.04-.16.09-.24.13-9.3,5.25-6.27,19.62,4.33,20.89,3.37.4,7.23.31,11.4-.1,1.86-.18,3.67-.7,5.35-1.51,9.87-4.76,22.89-10.02,37.09-15.45.6-.23,1.15-.59,1.54-1.1,1.35-1.74,1.91-4.42,1.79-7.91-.03-.89.29-1.76.86-2.45,11.51-14.13,17.74-33.89,7.96-71.16-.02-.09-.04-.18-.06-.27-5.61-32.97-24.54-56.78-54.13-73.28-1.84-1.02-3.72-1.97-5.67-2.77-13.97-5.7-22.11-16.71-28.11-29.65-.63-1.36-2.04-2.19-3.54-2.12l-73.23,3.48c-2.04.1-3.7-4.03-3.54,3.86.2,9.84-.73,19.26-3.62,28.18-.72,2.22-1.17,4.53-1.32,6.86-.57,9.22-.37,18.23,3.15,26.37,13.86,31.14,30.43,54.5,52.18,63.04"/>
      <path class="cls-3" d="M156.24,294.1c-1.97,3.86-2.8,7.83-1.05,12.08"/>
      <path class="cls-3" d="M146.62,294.1c-2.33,3.79-3.72,7.74-2.82,12.08"/>
      <path class="cls-3" d="M140.81,293.35c-2.7,2.4-2.9,5.8-2.2,9.57"/>
      <path class="cls-4" d="M90.75,188.3c-.45,14.92,1.14,31.2,3.91,48.25,2.06,15.31,3.66,30.07,1.06,39.71-.77,2.83-2.51,5.26-4.76,7.14-3.19,2.67-4.88,6.44-5.81,10.76-.77,3.61.66,7.4,3.73,9.44,5.47,3.65,12.57,2.39,19.83.63,1.6-.39,2.99-1.38,3.9-2.76,2.09-3.18,3.42-6.63,3.73-10.44.16-1.88.37-3.76.77-5.61,3.24-14.57,6.5-27.68,9.9-34.13.75-17.28,5.58-31.26,16.45-40.35"/>
      <path class="cls-3" d="M95.92,292.66c-1.97,4.71-3.02,9.11-2.27,12.92"/>
      <path class="cls-3" d="M103.39,295.91c-2.11,2.48-3.31,5.36-1.22,9.67"/>
      <path class="cls-2" d="M155.5,132.18c-6.73,27.44-21.53,33.69-37.41,37.08,10.28-12.82,19.04-26.88,21.16-46.44,4.62,3.41,10.07,6.52,16.25,9.36Z"/>
      <path class="cls-2" d="M174.6,144.58c.34,23.35-13.32,35.02-27.47,46.29,18.58-5.62,36-12.56,42.83-31.58"/>
      <path class="cls-2" d="M207.97,191.77c-4.33,20.86-17.07,34.05-31.81,45.44,12.79-1.56,25.37-6.24,37.12-23.53"/>
      <path class="cls-4" d="M28.1,57.21c-9.08,25.32-2.03,46.84,50.32,57.67,1.39.29,2.84.33,4.25.12,44.12-6.69,59.19-27.37,50.09-59.67,6.83-18.26,9.78-37.42,2.94-52.84-.65-1.46-2.27-2.27-3.82-1.89-11.28,2.76-22.73,12.19-33.3,25.36-12.39-2.53-24.02-3.63-33.14,0C54.6,15.22,42.87,4.76,29.77.65c-1.82-.57-3.74.55-4.21,2.39-4.14,16.22-4.7,34.63,2.53,54.16Z"/>
      <path class="cls-5" d="M27.42,39.07c2.72,10.03,6.86,13.37,13.63,4.3,6.01-6.42,12.07-11.89,18.3-14.38-5.6-8.85-13.08-15.91-24.79-18.97-1.27-.33-2.62.1-3.45,1.12-4.26,5.26-5.26,14.88-3.7,27.93Z"/>
      <path class="cls-5" d="M102.69,29.29c7.62,4.81,14.08,10.3,18.68,16.88,3.74,3.65,7.24,3.98,10.27-2.05,4.18-12.41,5.89-24-1.21-32.65-.84-1.02-2.19-1.49-3.49-1.25-9.2,1.74-17.27,8.18-24.26,19.07Z"/>
      <path class="cls-3" d="M63.84,95.66c5.42,4.98,10.83,4.98,16.25,0,5.28,4.83,10.86,5.13,16.81,0"/>
      <path class="cls-5" d="M74.96,78.21c3.6-.79,7.09-.91,10.43-.17,2.12.47,3.3,2.77,2.43,4.75-1.37,3.11-3.33,5.35-6.05,6.45-.87.35-1.86.29-2.72-.11-2.74-1.28-4.97-3.17-6.41-6.01-1.01-1.99.14-4.43,2.32-4.91Z"/>
      <line class="cls-3" x1="80.09" y1="95.66" x2="80.09" y2="90.07"/>
      <path class="cls-3" d="M57.87,84.47c-17.8-11.59-37.05-14.74-57.75-9.46"/>
      <path class="cls-3" d="M56.27,86.94c-19.2-6.2-37.62-5.91-54.99,3.12"/>
      <path class="cls-3" d="M56.86,90.07c-18.16-1.09-34.57,1.87-48,11.71"/>
      <path class="cls-3" d="M104.13,83.51c18.1-10.49,37.06-13.71,57.02-8.49"/>
      <path class="cls-3" d="M105.73,86.39c19.02-6.15,37.61-6.15,55.42,5.35"/>
      <g>
        <ellipse class="cls-1" cx="102.91" cy="64.63" rx="11.8" ry="11.53"/>
        <circle cx="103.17" cy="64.3" r="7.62"/>
        <circle class="cls-6" cx="105.81" cy="61.16" r="2.64"/>
      </g>
      <g>
        <ellipse class="cls-1" cx="57.87" cy="65.2" rx="11.22" ry="10.97"/>
        <circle cx="58.13" cy="64.88" r="7.25"/>
        <circle class="cls-6" cx="60.63" cy="61.89" r="2.51"/>
      </g>
      <path class="cls-4" d="M60.52,290.74c-2.31,2.74-2.65,5.81,0,9.4"/>
      <path class="cls-4" d="M67.85,290.74c-2.81,3.34-2.81,6.67,0,10.01"/>
    </g>
  </g>
</svg>