<?xml version="1.0" encoding="UTF-8"?>
<svg id="Calque_2" xmlns="http://www.w3.org/2000/svg" viewBox="0 0 487.62 424">
  <defs>
    <style>
      .cls-1 {
        fill: #000002;
      }

      .cls-2 {
        fill: #fcc7b7;
      }

      .cls-2, .cls-3, .cls-4, .cls-5, .cls-6, .cls-7, .cls-8, .cls-9 {
        stroke: #000;
        stroke-miterlimit: 10;
      }

      .cls-3 {
        fill: #fff;
      }

      .cls-4 {
        fill: #890203;
      }

      .cls-5 {
        fill: #89483c;
      }

      .cls-6 {
        fill: none;
      }

      .cls-7 {
        fill: #543c38;
      }

      .cls-9 {
        fill: #f89f8c;
      }

      .cls-10 {
        fill: #1a1a1a;
      }
    </style>
  </defs>
  <g id="Calque_1-2" data-name="Calque_1">
    <g>
      <path class="cls-7" d="M314.89,350.91l71.01-7.35c-6.99,24.93-21.89,35.46-39.18,41.63-6.98-4.02-9.72-10.26-11.19-17.14-11.97,16.25-18.17,7.58-20.64-17.14Z"/>
      <path class="cls-2" d="M178.29,318.61l-81.67-54.36c7.07,34.24,16.59,64.52,9.72,82.46,21.12,10.94,42.1,17.83,62.5,6.83l9.45-34.93Z"/>
      <path class="cls-7" d="M168.83,353.54s-6.97,16.52-14.52,21.32c-18.87,11.98-28.45,7.2-31.77-8.9-18.78,13.96-21.48,3.42-16.21-19.25,19.29,12.93,40.13,15.14,62.5,6.83Z"/>
      <path class="cls-2" d="M411.91,74.32c1.62-14.96,10.42-35.82,33.43-41.7l-3.18,12.1c-9.21,5.37-18.84,21.68-18.78,36.93l-11.46-7.32Z"/>
      <path class="cls-2" d="M472.71,16.7c-11.69.32-21.14,4.99-27.38,15.92-2.04,4.17-2.91,8.18-3.18,12.1-.59,12.33,3.13,19.5,13.69,18.46,9.07-3.09,13.41-9.33,10.78-20.21-.74-3.05-2.75-5.64-5.46-7.23l-6.39-3.76c-1.62,2.61-3.91,5.36-3.39,8.54,5.14,1.83,7.49,4.84,5.68,9.62-.81,2.15-3.62,2.85-5.19,1.16s-2.05-4.79-1.54-9.66c2.53-9.95,10.29-18.16,22.38-24.94Z"/>
      <path class="cls-2" d="M235.4,52.29c87.25-17.15,165.97-15.82,215.68,48.39,26.49,51.88,31.78,105.99,18.58,162.05-1.36,5.75-1.55,11.73-.38,17.52,2.66,13.17,6.36,25.41,11.78,36.11,2.67,5.27,3.98,11.14,4.01,17.05.11,19.47-2.1,37.33-14.48,48.14-28.06,6.29-53.44,4.93-66.02-6.68l-1.34-11.29c-.3-2.51-2.28-4.44-4.78-4.77-7.78-1.01-15.77-4.68-23.88-9.83-33.47,7.54-65.34,10.14-94.9,5.63l-7.34,24.28c-1.51,5-5.68,8.77-10.82,9.71-25.24,4.63-47.2,3.09-63.24-9.61,2.04-12.72,2.48-26.35-2.63-43.14-34.34-7.95-64.74-27.02-91.69-55.89L235.4,52.29Z"/>
      <path class="cls-2" d="M227.31,93.44c14.88-24.35,14.34-47.45-12.79-68.4-3.68-2.85-8.46-3.88-13-2.84-13.82,3.19-25.03,9.81-28.19,27.03-32.36-10.27-65.2-13.31-99.11,0-5.06-18.01-13.91-27.46-28-25.04-5.54.95-10.59,3.74-14.66,7.62-10.25,9.77-16.03,19.67-13.55,29.82,1.89,7.77,9.54,12.92,17.26,10.82,3.41-.93,6.23-3.08,8.25-6.93C16.49,107.71-4.14,149.97,1.41,192.52c2.07,15.85,9.26,30.56,20.12,42.28,24.64,26.58,54.64,44.62,94.89,46.39,18.39.81,36.68-2.35,53.96-8.69,74.87-27.47,98.81-97.82,56.94-179.07Z"/>
      <path class="cls-8" d="M84.01,216.98c42.37,5.17,74.8-2.86,87.28-37.4l-11.06-6.15c14.2,1.64,24.84,7.73,27.05,24.38l-5.33-6.97c-11.41,35.53-31.86,57.47-68.02,55.73-12.4-8.24-23.53-16.74-29.91-26.23l-2.46-3.37h2.46Z"/>
      <path class="cls-4" d="M134.61,225.5c11.63-2.59,21.87-3.17,29.59-.03-13.71,16.39-30.23,24.83-51.57,19.63,2.45-7.03,8-12.7,15.98-17.31,1.86-1.07,3.9-1.83,6-2.3Z"/>
      <ellipse class="cls-3" cx="73.53" cy="122.86" rx="30.16" ry="21.33" transform="translate(-69 136.58) rotate(-64.6)"/>
      <ellipse class="cls-3" cx="129.07" cy="125.87" rx="25.78" ry="34.89" transform="translate(-39.04 60.74) rotate(-23.1)"/>
      <path class="cls-9" d="M52.06,157c23.61-21.73,45.77-22.11,66.1,4.59,4.83,6.34,8.44,13.57,10.1,21.37,4.96,23.28-9.65,34.71-44.25,34.03-19.57-4.82-43.39-4.33-43.76-33.15-.13-10.2,4.3-19.92,11.81-26.83Z"/>
      <ellipse class="cls-5" cx="97.21" cy="182.5" rx="10.29" ry="17.55" transform="translate(-52.7 40.09) rotate(-18.43)"/>
      <ellipse class="cls-1" cx="99.48" cy="181.15" rx="7.15" ry="14.43" transform="translate(-52.16 40.73) rotate(-18.43)"/>
      <ellipse class="cls-5" cx="64.01" cy="179.32" rx="15.03" ry="7.75" transform="translate(-126.39 181.11) rotate(-70.89)"/>
      <ellipse class="cls-1" cx="65.67" cy="180.23" rx="10.96" ry="5.05" transform="translate(-126.13 183.28) rotate(-70.89)"/>
      <ellipse class="cls-10" cx="79.59" cy="124.39" rx="5.02" ry="2.34" transform="translate(-62.63 164.14) rotate(-73)"/>
      <path class="cls-10" d="M123.35,125.58c0-2.77,1.05-5.02,2.34-5.02s2.34,2.25,2.34,5.02c0,2.77-1.05,5.02-2.34,5.02s-2.34-2.25-2.34-5.02Z"/>
      <path class="cls-6" d="M54.23,47.91c-3.57,7.89-7.14,15.18-10.72,17.6"/>
      <path class="cls-6" d="M59.33,47.91c-2.28,5.26-4.76,9.99-9.34,8.8"/>
      <path class="cls-6" d="M67,81.12c9.51-10.63,19.58-11.46,30.1-4.38"/>
      <path class="cls-6" d="M110.6,76.63c13.18-6.78,25.64-7.34,36.67,4.49"/>
      <line class="cls-6" x1="171.21" y1="56.72" x2="173.33" y2="49.23"/>
      <path class="cls-6" d="M189.41,49.23c5.02,26.56,11.93,50.18,37.91,44.21"/>
      <path class="cls-6" d="M121.99,256.45c14.1,1.1,26.19-1.84,35.05-11.34"/>
      <path class="cls-6" d="M184.06,297.38c6.31,13.81,11.04,26.99,11.59,38.49"/>
      <path class="cls-6" d="M281.71,307.01c.67,17.36.24,33.5-2.04,47.61"/>
      <path class="cls-6" d="M347.79,275.44c-3.21,27.51,7.04,51.71,26.78,73.56"/>
      <path class="cls-6" d="M343.97,266.63c-3.58,11.74-3.88,20.98,3.24,24.57"/>
      <path class="cls-6" d="M440.05,357.25c-11.88,3.5-24.62,5.71-41.6,1.58"/>
      <path class="cls-7" d="M416.27,392.27c8.54,19.9,19.89,25.72,34.45,15.49,9.71-8.47,17.24-17.13,19.88-26.2-23.81,6.37-46.35,6.69-66.02-6.68-5.24,8.14-7.61,15.64-5.5,22.12.76,2.34,3.01,3.93,5.47,3.91,6.14-.05,9.78-3.27,11.72-8.64Z"/>
      <path class="cls-7" d="M217.63,403.35c10.99,19.34,25.08,22.8,43.09,6.11,2.82-2.62,4.86-5.98,5.88-9.7l5.73-20.85c-5.71,15.4-48.41,16.44-74.06.1-2.86,12.96-4.26,25.11,3.6,32.11,1.64,1.46,3.96,1.92,6.02,1.16,4.65-1.72,8.13-4.49,9.74-8.93Z"/>
    </g>
  </g>
</svg>