<?xml version="1.0" encoding="UTF-8"?>
<svg id="Calque_2" xmlns="http://www.w3.org/2000/svg" viewBox="0 0 436.18 426.45">
  <defs>
    <style>
      .cls-1 {
        fill: #4caf50;
      }

      .cls-1, .cls-2, .cls-3, .cls-4, .cls-5 {
        stroke: #000;
        stroke-miterlimit: 10;
      }

      .cls-6 {
        fill: #f8f9f9;
      }

      .cls-7 {
        fill: #010102;
      }

      .cls-2 {
        fill: #fff;
      }

      .cls-3 {
        fill: #fefffe;
      }

      .cls-4 {
        fill: none;
      }

      .cls-8 {
        fill: #f6f7f7;
      }

      .cls-5 {
        fill: #388e3c;
      }
    </style>
  </defs>
  <g id="Calque_1-2" data-name="Calque_1">
    <g>
      <path class="cls-1" d="M208.17,354.28h50.14s0,41.66,0,41.66c-4.34,9.68-13.27,12.82-23.95,13.47-12.75-.51-24.33-1.62-30.93-5.24-7.86-4.14-1.8-13.37,3.49-22.32,2.43-9.02,3.06-18.19,1.25-27.56Z"/>
      <path class="cls-2" d="M210.46,406.76c1.68-11.48,1.21-20.59-7.62-17.87-2.35,4.84-4.76,9.69-1.83,13.38,2.28,1.74,5.53,3.21,9.44,4.49Z"/>
      <path class="cls-2" d="M226.42,409.41c1.42-4.27.54-9.36-1.04-14.71-2.82-6.21-8.55-4.2-13.99,2.46.05,3.4-.34,6.55-.93,9.6,5.09,1.61,10.37,2.6,15.97,2.65Z"/>
      <path class="cls-2" d="M242.95,408.16c0-12.41-5.39-21.86-15.92-5.71.17,2.62.11,5.06-.6,6.95,6.06.24,11.71,0,16.52-1.25Z"/>
      <path class="cls-1" d="M72.29,295.38l46.49,46.49c-4.67,9.44-8.93,19.83-5.13,49.05.39,2.97.28,6-.52,8.89-2.68,9.63-10.75,13.77-22.32,14.34-19.33-1.59-38.88-3.11-44.52-9.38-1.28-1.42-1.7-3.44-1.26-5.3,1.41-5.97,3.32-10.65,5.82-13.86,2.99-3.83,4.85-8.42,5.38-13.25,3.72-33.93,8.08-64.61,16.05-76.98Z"/>
      <path class="cls-4" d="M65.03,342.6c5.57,5.45,11.14,7.26,16.71,5.45"/>
      <path class="cls-4" d="M65.03,350.59c5.24,4.01,10.79,5.57,16.71,4.18"/>
      <path class="cls-2" d="M59.92,410.27c.7-13.37-.12-20.21-6.06-20.63-3.55-.25-6.29,2.58-7.42,5.95-.98,2.93-1.71,5.3-.59,7.88,2.28,3.35,7.59,5.33,14.06,6.79Z"/>
      <path class="cls-2" d="M77.04,411.9c.98-15.63-4.44-20.73-11.1-16.34-3.85,2.54-6.01,6.99-6.01,11.6v3.1s15.99,2.53,15.99,2.53c.57.09,1.09-.33,1.13-.9Z"/>
      <path class="cls-2" d="M94.38,412.93c-1.89-18.39-10.11-20.21-16.29-7.91-.88,1.75-1.1,3.77-.64,5.68l.42,1.75c.09.36.4.62.76.63l14.92.72c.48.02.87-.39.82-.87Z"/>
      <path class="cls-1" d="M33.28,56.07C40.57,12.17,64.44-7.86,110.27,3.74c38.49,22.43,40.98,66.54,31.14,118.07-5.76,31.42-16.68,67.52-1.63,80.08,3.01,2.51,7.41,2.29,10.31-.35,12.34-11.24,26.6-19.23,42.79-23.94,35.83-10.04,65.82-1.57,92.98,15.84,10.98,7.04,20.85,15.71,29.11,25.8,10.06,12.28,20.79,21.61,32.29,27.5,5.4,2.77,11.69,3.25,17.45,1.33,37.11-12.39,52.41-57.79,20.28-101.05-1.6-2.16-.03-5.21,2.66-5.2,25.08.03,44.63,29.98,47.83,80.73,1,15.78-1.54,37.83-8.16,52.19-21.76,47.17-60.88,51.18-109.36,73.98l-65.05,8.9c-62.69,12.38-116.52,3.33-161.4-27.39-55.27-52.33-36.61-120.83-11.08-198.48-22.34,3.96-40.13,1.61-49.74-12.11-20.63-4.93-27.98-14.15-29.78-25.15-1.49-9.12,1.18-18.54,7.24-25.51,5.57-6.41,13.52-11.03,25.13-12.91,17.16-1.43,30.91.58,38.23,9.1"/>
      <path class="cls-5" d="M104.11,122.38c-17.58,76.36-24.52,145.97,17.72,184.39,41.81,28.04,87.36,41.77,141.84,21.52l60.16-7.34c46.3-.16,84.43-21.58,110.25-75.02h0c5.29,117.07-234.41,129.13-281.43,111.54-104.33-24.66-121.99-103.94-72.22-225.71l23.69-9.38Z"/>
      <path class="cls-1" d="M123.25,295.38c-3.83,25.34.78,47.92,11.55,68.49-.92,16.32-2.6,30.7-6.44,39.6-10.53,10.27-8.98,17.31,6.44,20.65,24.08,3.15,45,2.35,56.76-9.97,3.21-37.27,4.62-72.23-2.64-96.19"/>
      <path class="cls-2" d="M135.06,423.32c4-12.83,2.45-20.12-6.7-19.85-3.98,4.68-10.7,10.68-4.05,16.41l9.72,3.92c.42.17.9-.06,1.03-.49Z"/>
      <path class="cls-2" d="M153.28,425.69c2.34-20.83-6.35-26.08-16.15-9.12-1.07,3.46-2.55,6.79-1.08,7.3,5.5,1.61,12.49,1.2,17.23,1.82Z"/>
      <path class="cls-2" d="M172.41,424.12c-4.96-22.8-10.37-18.82-16.78-7.1-.94,1.72-1.59,3.6-1.88,5.54l-.47,3.12c7.44.48,14.37.48,19.13-1.57Z"/>
      <path class="cls-1" d="M258.3,270.44c-18.78,36.65-16.42,69.94,2.16,100.65,2.42,4.01,4.07,8.47,4.47,13.14.58,6.75-.78,13.2-4.72,19.25-3.34,6.33-.57,11.67,13.86,15.14,19,3.01,35.72,2.24,47.99-5.88,3.99-2.64,6.28-7.21,6.19-12-.27-14.35-2.97-29.24-7.82-44.61-1.56-4.94-1.69-10.2-.5-15.24,3.15-13.33,5.55-28.11,6.61-45.5"/>
      <path class="cls-2" d="M273.16,415.4c-.86-16.45-4.09-21.62-12.96-11.93-1.02,3.48-2.35,7.04.84,9.28,2.78,2.14,6.2,3.8,10.11,5.1.85.32,2.05-1.54,2.01-2.45Z"/>
      <path class="cls-2" d="M272.72,417.88l1.01-5.74c.23-1.32.65-2.6,1.27-3.79,8.55-16.52,16.31-9.1,17.91,11.46-7.77.2-14.43-.48-20.19-1.94Z"/>
      <path class="cls-2" d="M311.74,417.6c-3.5-18.08-11.05-21.9-17.6-7.62-.8,1.75-1.23,3.66-1.23,5.58v4.25c6.92-.07,13.33-.66,18.83-2.22Z"/>
      <path class="cls-4" d="M30.69,119.65c31,.97,53.37-4.22,65.88-29.26"/>
      <path class="cls-4" d="M90.59,89.19c5.47-.65,9.84.16,11.82,4.17"/>
      <path class="cls-3" d="M53.77,57.04c15.82-26.29-6.18-32.78-17.22-15.45l-3.19,14.03c8.27-.29,15.12.16,20.41,1.42Z"/>
      <ellipse class="cls-7" cx="51.38" cy="47.99" rx="8.48" ry="7.24" transform="translate(-8.37 85.06) rotate(-74.86)"/>
      <ellipse class="cls-8" cx="53.21" cy="45.79" rx="3.1" ry="3.93"/>
      <path class="cls-3" d="M109.59,65.08c-4.84-.41-9.05,0-11.7,2.42-1.06.97-2.53,1.38-3.89.91-6.65-2.3-10.24-7.57-7.3-19.14,1.09-4.28,3.41-8.22,6.9-10.92,4.52-3.5,9.04-3.88,13.57-.45,3.6,2.73,5.74,6.96,6.24,11.45.66,5.91-.12,11.33-3.82,15.73Z"/>
      <path class="cls-7" d="M112.14,56.34c.56-6.1-2.77-11.39-7.43-11.82s-8.88,4.18-9.44,10.28,2.66,12.88,7.43,11.82c6.9-1.54,8.88-4.18,9.44-10.28Z"/>
      <circle class="cls-6" cx="106.07" cy="53.38" r="3.66"/>
      <path class="cls-4" d="M92.18,72.83c7.9-7.95,19.1-12.21,27.62-5.1"/>
      <path class="cls-4" d="M103.7,17.27c6.52.15,10.91,1.95,9.92,7.93"/>
      <path class="cls-4" d="M61.53,15.21c-3.44-2.37-6.83-2.77-10.15-.98"/>
      <g>
        <ellipse class="cls-7" cx="45.93" cy="80.18" rx="6.79" ry="4.88" transform="translate(-46.39 84.13) rotate(-62.65)"/>
        <ellipse class="cls-6" cx="46.38" cy="80.58" rx="4.13" ry="2.81" transform="translate(-46.51 84.75) rotate(-62.65)"/>
      </g>
      <g>
        <ellipse class="cls-7" cx="15.99" cy="77.78" rx="5.59" ry="4.02" transform="translate(-63.27 72.91) rotate(-74.86)"/>
        <ellipse class="cls-6" cx="16.43" cy="78.03" rx="3.4" ry="2.31" transform="translate(-63.19 73.51) rotate(-74.86)"/>
      </g>
      <path class="cls-4" d="M139.15,355.27c4.78,2.68,10.17,3.49,16.47,1.46"/>
      <path class="cls-4" d="M138.24,362.99c5.79,3.03,11.59,3.71,17.38,2.06"/>
      <path class="cls-4" d="M256.09,348.94c5.53,2.31,11.03,3.22,16.47,1.63"/>
      <path class="cls-4" d="M260.21,358.72c6.89,1.09,13.09.83,17.24-3.45"/>
      <ellipse class="cls-5" cx="119.78" cy="150.66" rx="8.58" ry="11.15"/>
      <ellipse class="cls-5" cx="113.08" cy="187.78" rx="13.68" ry="7.99" transform="translate(-82.69 286.39) rotate(-85.68)"/>
      <ellipse class="cls-5" cx="142.46" cy="227.16" rx="14.36" ry="12.44" transform="translate(-40.31 30.96) rotate(-10.88)"/>
      <ellipse class="cls-5" cx="182.08" cy="253.84" rx="15.17" ry="11.92"/>
      <ellipse class="cls-5" cx="203.02" cy="209.86" rx="30.34" ry="17.3" transform="translate(-40.14 48.2) rotate(-12.33)"/>
      <ellipse class="cls-5" cx="242.55" cy="240.61" rx="16.49" ry="12.04"/>
      <ellipse class="cls-5" cx="303.33" cy="250.76" rx="12.74" ry="17.8" transform="translate(-71.46 370.87) rotate(-57.35)"/>
      <path class="cls-5" d="M301.35,214.55c-5.64,15.58-22.98,12.8-37.08,4.66-14.1-8.14-24.15-24.97-14.13-36.22,5.57-6.26,14.84-1.3,28.94,6.84s25.53,15.75,22.27,24.73Z"/>
      <path class="cls-5" d="M104.11,122.38c6.74-4.77,11.96-9.54,15.67-14.3"/>
    </g>
  </g>
</svg>