<?xml version="1.0" encoding="UTF-8"?>

<svg
        id="Calque_2" xmlns="http://www.w3.org/2000/svg" viewBox="0 0 42.29 35.34">
  <defs>
    <style>
      .cls-1 {
        fill: #7fb800;
      }

      .cls-2 {
        fill: #b9d412;
      }

      .cls-3 {
        fill: #fff;
      }

      .cls-4 {
        fill: #67a019;
      }

      .cls-5 {
        fill: none;
        stroke: #67a019;
        stroke-miterlimit: 10;
      }
    </style>
  </defs>
  <g id="Calque_1-2" data-name="Calque_1">
    <g>
      <path id="jambeGauche" class="cls-4" d="M8.98,33.26H.51c.08-1.51.98-2.51,2.71-3-1.51-1.98-2.6-4.16-3.13-6.61-.45-2.07.77-4.25,3.08-4.88,1.48-.4,3.37-.3,5.8.48v14Z"/>
      <path id="jambeDroite" class="cls-4" d="M33.79,19.26c.61.54,1.05,1.27,1.4,2.11.51,1.24.61,2.6.28,3.9-.48,1.91-1.4,3.55-2.68,4.99,1,.39,1.67,1.56,2,3.5h-8c-.32,0-.62-.13-.85-.35l-1.15-1.15,3-8,6-5Z"/>
      <path id="bras" class="cls-1" d="M28.77,16.35c2.26-2.19,3.92-4.41,4.02-6.7,0-.19.19-.31.36-.24l4.74,1.84c.56.24.63,1.01.12,1.34l-1.22,1.66c-1.32,3.79-3.71,6.84-6.99,9.29-.53.39-.86,1.02-.83,1.67.09,1.5-.72,3.08-1.92,4.69-.1.13-.3.08-.33-.09-.43-2.73-1.72-4.93-3.94-6.56-1.97-1.23-4.16-1.55-6.49-1.24-2.59.34-4.51,2.58-4.51,5.19v.09c0,1.14.5,2.19,1.3,3,1.1,1.1,2.09,2.69,2.53,4.2.11.39-.17.8-.57.82-2.08.11-3.95-.06-5.44-.73-.84-.38-1.47-1.09-1.83-1.93-1.68-3.94-2.07-8.07-.51-12.49.5-1.42,1.81-2.41,3.32-2.45l15.93-.41c.84-.02,1.64-.36,2.24-.94Z"/>
      <path id="ventre" class="cls-2" d="M14.07,22.52c2.05-.8,4.4-.97,7.05-.52,1.05.18,2.03.67,2.81,1.41,2.63,2.51,3.85,4.5,2.85,7.18-.3.79-1.2,2.13-1.98,2.42-2.6.98-5.36.96-9.02.49-.57-.07-1.11-.36-1.51-.78-1.97-2.05-3.32-4.34-2.57-7.49.29-1.24,1.2-2.24,2.37-2.7Z"/>
      <g>
        <circle class="cls-1" cx="37.79" cy="6.26" r="1.5"/>
        <circle class="cls-1" cx="40.79" cy="10.26" r="1.5"/>
        <circle class="cls-1" cx="32.79" cy="6.26" r="1.5"/>
        <path class="cls-1" d="M32.79,10.82l2.38-1.01.06-.15-.93-1.9-.2-.44c-.18-.41-.61-.67-1.06-.62h0c-.41.04-.7.4-.65.81l.41,3.32Z"/>
        <path class="cls-1" d="M33.73,10.12l2.54.93.18-.09,1.2-2.31.3-.52c.28-.49.23-1.02-.1-1.32h0c-.31-.27-.85-.19-1.21.2l-2.9,3.11Z"/>
        <path class="cls-1" d="M36.22,10.67l1.08,2.31.19.06,1.84-.99.44-.21c.41-.2.64-.63.58-1.08h0c-.05-.41-.43-.69-.84-.62l-3.3.53Z"/>
      </g>
      <path class="cls-1" d="M11.89,18.81c-.82-1.03-4.03-5.31-3.3-7.91h17.97c.26,3.65-2.69,7.53-3.12,8.07-.01.01.01.03.03.02,3.27-1.82,5.46-4.18,6.57-7.09.25-.66.34-1.37.19-2.06-.24-1.11-.77-2.08-1.58-2.93.92-6.2-5.53-9.62-9.72-3.63h-2.61C13.77-.97,8.34-1.22,6.33,3.29c-.45,1.16-.4,2.35,0,3.56-2.08,3.66-2.13,7.12,1.39,10.25.24.21.53.38.83.51l3.25,1.32c.07.03.14-.06.09-.12Z"/>
      <path class="cls-2" d="M26.6,10.79c0,4.51-2.16,9.66-9.05,9.66-7.27,0-9.05-5.15-9.05-9.66h18.1Z"/>
      <path class="cls-5" d="M7.79,9.89c1.03,1.43,2.79,1.37,5.22,1.03,2.63-.35,5.08-.49,7.13-.13.42.07.85.12,1.28.11,2.61-.12,4.94-.39,6.03-1"/>
      <g>
        <circle class="cls-3" cx="11.32" cy="5" r="3.84"/>
        <circle cx="11.45" cy="4.97" r="2.47"/>
      </g>
      <g>
        <circle class="cls-3" cx="23.81" cy="5" r="3.84"/>
        <circle cx="23.41" cy="4.97" r="2.47"/>
      </g>
    </g>
  </g>
</svg>