<?xml version="1.0" encoding="UTF-8"?>
<svg id="Calque_2" xmlns="http://www.w3.org/2000/svg" viewBox="0 0 342.81 381.29">
  <defs>
    <style>
      .cls-1 {
        fill: #1c1c1c;
      }

      .cls-1, .cls-2, .cls-3, .cls-4, .cls-5, .cls-6 {
        stroke: #000;
        stroke-miterlimit: 10;
      }

      .cls-7 {
        fill: #252122;
      }

      .cls-2 {
        fill: #4b4b4b;
      }

      .cls-3 {
        stroke-linecap: round;
      }

      .cls-3, .cls-6 {
        fill: none;
      }

      .cls-4 {
        fill: #625e5f;
      }

      .cls-8 {
        fill: #fff;
      }

      .cls-5 {
        fill: #7d7d7d;
      }

      .cls-9 {
        fill: #fffdfe;
      }
    </style>
  </defs>
  <g id="Calque_1-2" data-name="Calque_1">
    <g>
      <path class="cls-2" d="M215.44,263.78c-2.25,7.58-2.02,14.33,2.66,19.59,6.29,9.81,9.46,18.97,0,25.49l-8.94,7.23c8.57-21.16,5.83-38.75-22.83-48.13,10.01-4.56,19.86-7.54,29.1-4.18Z"/>
      <g>
        <path class="cls-5" d="M137.34,378.43c-7.51,3.3-13.51,3.65-17.13-2.22-.83-1.34-1.2-2.91-1.2-4.48v-38.2s7.92-86.59,7.92-86.59l37.52,8.87v3.46c0,1-.81,1.82-1.82,1.82h0c-1.02,0-1.83.84-1.82,1.85.04,3.54-.41,6.57-2.05,8.37-11.03,39.78-14.4,79.01,0,83.52,5.11,4.76,8.69,10.21,9.66,16.82.06,1.69-.53,3.39-1.78,4.53s-2.86,1.52-4.92.8"/>
        <path class="cls-5" d="M151.87,377.62c-4.81,2.55-9.66,2.79-14.53.81-.52-5.98-1.58-11.53-6.35-14.12"/>
        <path class="cls-5" d="M141.43,364.3c7.39-.16,9.47,5.93,10.44,13.31,3.68,1.32,7.1,1.61,9.85-.65-.59-7.09-2.59-12.69-8.91-13.72"/>
      </g>
      <path class="cls-5" d="M164.65,346.53c3.74,3.21,9.42,2.47,15.99-.11,3.44-1.35,6.41-3.69,8.52-6.73,6.33-9.08,13-16.94,20-23.6,12.45-31.61-4.67-40.27-22.83-48.13l-13.02-.05,11.88,13.56c7.21,5,11.24,10.3,7.42,16.36-5.54,9.95-13.55,17.61-25.11,23.21-7.79,1.42-18.26,10.08-13.51,20.16l2.66,2.28c1.42,2.96,4,4.11,7.99,3.04Z"/>
      <path class="cls-2" d="M46.22,211.57c5.62,48.82,3.1,85.26-7.48,113.63,6.22-2.38,11.76-8.23,15.95-21.1,3.38-15.98,9.26-29.28,23.42-33.72,6.75-2.17,12.66-4.7,13.96-9.3l-45.85-49.51Z"/>
      <path class="cls-2" d="M338.56,261.18c9.14-31.37,1.22-47.94-20.07-52.9l7.88-5.08c-14.3-2.51-34.09-10.09-53.99-17.77,6.95,43.25,10.69,94.94,30.67,103.8l9.65,3.78"/>
      <path class="cls-5" d="M308.37,285.68c7.48-6.88,14.76-8.76,23.31-42.88,1.83,7.57,3.86,14.49,6.87,18.38-.74,4.09-1.27,8.04,0,10.76l-5.53-7.7c-2.23,12.71-8.62,22.56-20.32,28.76-4.21-.48-5.78-2.83-4.33-7.32Z"/>
      <path class="cls-5" d="M248.86,300.76c-2.8,15.23-.35,28.82,5.16,41.45,1.08-12.97,8.02-24.44,16.43-35.53-1.12,3.15-.93,8.14-.57,13.37,3.98-6.7,9.28-10.59,15.28-12.99.59-10.74-23.5-21.82-44.32-32.86-6.15,8.7-9.75,17.85-8.21,27.89,2.26-1.41,5.07-6.62,8.21-14.14-1.7,19.62-3.58,37.84-7.64,39.93,10.92-.79,15.23-11.16,15.66-27.13Z"/>
      <path class="cls-2" d="M250.58,274.21l27.89,16.05c-8.96,6.26-17.13,13.56-24.45,21.97.02-10.86,1.05-20.85,4.7-28.61-5.24,2.54-9.62,6.78-12.72,13.52-1.99-7.56-2.08-15.2,0-22.92h4.58Z"/>
      <path class="cls-5" d="M159.07,249.47c10.01,2.32,21.5,2.75,35.46,0,19.91-3.38,32.5-3.38,37.74,0l7.54,15.2c-8.33-4.7-25.08-1.38-41.8,1.9-18.1,5.01-34.42,8.66-41.35,5.07l2.4-22.16Z"/>
      <path class="cls-2" d="M123.6,116.48l13.62-6.33c7.51,14.73,16.77,25.34,31.24,23.75-2.72,3.7-5.47,7.26-9.39,5.7,4.79,1.98,9.17,4.35,10.77,9.5,5.48,6.92,11.37,11.11,18.05,10.13-5.56,3.88-12.27,7.21-22.48,8.87,7.87-.95,15.34-1.48,20.03.99,3.5,1.85,7.22,3.28,11.16,3.71,7.44.81,16.74.28,27.72-1.44,1.91-.3,3.84-.39,5.77-.31,21.53.85,40.02,5.66,48.4,23.65,12.43,20.4,18.5,41.3,15.36,62.95-1.01,6.99.7,14.16,4.84,19.88,2.75,3.79,6.41,7.7,10.8,11.7,3.93,13.87,6.37,26.83,2.53,35.99-3.21-4.04-5.31-11.22-6.61-20.62-1.04-7.44-3.97-14.54-8.79-20.31-5.16-6.18-11.03-10.87-18.13-12.95-23.78-6.21-42.11-17.52-54.39-34.51l3.49,10.89c-26.05,9.77-49,14.32-62.46,2.91l-2.37-15.38,1.71,20.58-5.1-1.19c-.67-.16-1.33.31-1.4,1-.28,2.9-.95,5.56-2.69,7.57l-1.89-3.18c-3.33,5.99-6.96,10.75-10.86,14.44-13.84,11.4-20.63,32.54-23.5,59.08-.91-35.87-1.65-72.72-5.58-90.73v19.55c-2.81-14.37-5.24-28.27-2.8-36.42.22-.72,1.17-.88,1.64-.29l7.18,9.11c4.57-9.25,1.28-25.38-3.06-42.43l5.9,8c-.59-14.74-.36-28.58,5.73-35.87,5.02-14.21,3.75-30.14-4.42-47.96Z"/>
      <path class="cls-5" d="M298.98,367.61c9.76-7.96,11.81-22.67,13.38-37.74.13-1.23-.18-2.51-1.02-3.41-2.57-2.75-5.23-18.2-7.48-28.75-1.67-13.74-11.56-26.14-29.13-32.8-16.74-2.54-37.29-14.83-50.64-28.1,2.17,24.76,21.08,47.78,48.31,61.7,9.33,3.55,12.23,10.68,11.4,19.89-.15,1.69-.24,3.4-.21,5.1.13,7.95-1.29,13.99-4.47,17.86-1.61,1.96-3.98,3.04-6.48,3.46-2.86.48-5.66,2.21-8.43,4.58-1.92,1.65-3.23,3.92-3.71,6.41-1.64,8.53-.29,14.5,9.46,14.06,2.83,1.2,5.38,1.64,7.48.75,3.13,1.7,6.22,1.77,9.29.13l5.52.57c2.52-.43,4.74-2.09,6.72-3.7Z"/>
      <path class="cls-5" d="M47.85,133l78.86-8.92c4.71,14.64,6.08,28.35,1.31,40.36-4.45,11.33-7.65,22.96-5.73,35.87l-5.9-8c3.76,19.4,7.59,38.93,3.06,42.43l-8.81-8.82,3.09,42.46c-19.77-4.74-35.13-12.62-41.68-26.76l3.31,14.42c-19.33-22.13-33.08-44.2-33.41-66.15l-3.2,13.56c-6.57-14.22-9.37-32.07,9.11-70.46Z"/>
      <path class="cls-2" d="M128.98,49.78c5.78-12.65.91-29.37-8.07-47.67-.65-1.33-2.24-1.96-3.61-1.39-10.61,4.48-16.98,15.31-21.63,28.68l-5.49,13.13,38.8,7.25Z"/>
      <path class="cls-6" d="M115.07,37.24l1.1-2.5c.5-1.13-.33-2.39-1.56-2.39h-.86c-1.31,0-2.13-1.41-1.49-2.54h0c.71-1.26-.36-2.77-1.78-2.52l-2.02.35c-1.39.24-2.46-1.21-1.81-2.46l7.71-15c.63-1.23,2.38-1.24,3.03-.02l2.19,4.16"/>
      <path class="cls-2" d="M30.84,70.3c-8.36-19.27-12.34-37.89-5.85-54.98,13.46,2.87,25.71,10.74,35.79,27.49l-29.95,27.49Z"/>
      <path class="cls-6" d="M26.63,32.17l.88-5.61c.22-1.38,1.91-1.93,2.9-.94l12.03,12.06c1.07,1.08.31,2.91-1.21,2.91h-1.04c-1.53,0-2.29,1.86-1.19,2.93h0c.98.95.5,2.6-.83,2.89l-1.41.31c-1.31.29-1.8,1.9-.86,2.86l2.42,2.47"/>
      <path class="cls-5" d="M8.28,104.45l69.79,32.27,29.07-2.41,55.45-50.35c-8.31-5.5-14.91-11.58-19.44-18.36-12.96-18.69-28.65-29.69-48.72-28.37l3.89-8.46c-8.19,3.19-14.59,7.04-18.3,11.89-9.57-5.02-18.93-8.16-27.45-3.43l8.21,3.66c-14.59,6.46-26.66,14.22-31.49,25.71-7.64,16.91-15.16,33.07-21.01,37.84Z"/>
      <path class="cls-2" d="M36.33,95.57c1.85-32,32.94-45.79,39.57-6.4,2.79,16.02,5.29,31.23,4.12,36.6,2.34,13.5,24.02,16.7,24.02-2.74-9.33-29.42-12.07-52.46-2.52-63.59,11.05-5.7,22.36-.32,34.08,22.42l34.54,13.5-16.7,3.43,10.06,5.68-17.16,4.39,7.09,5.72c-18.24,1.61-32.9,8.63-38.66,29.05-11.17,16.83-24.79,19.1-40.95,5.49-14.17-13.38-29.31-21.52-47.22-14.64l7.12-8.01c-8.5-2.23-16.98-1.69-25.46,2.29l10.89-14.18-17.61,3.66c10.92-10.73,22.33-19.14,34.77-22.65Z"/>
      <path class="cls-6" d="M52.8,119.36c6.15,5.77,12.34,11.58,18.76,17.61,6.76,8.14,14.03,13.02,22.87,8.01,4.67.96,9.14.53,13.27-2.06,6.26-14.43,12.52-30.13,18.76-34.08"/>
      <line class="cls-6" x1="94.44" y1="144.98" x2="93.53" y2="136.72"/>
      <g>
        <ellipse class="cls-4" cx="58.93" cy="91.11" rx="8.37" ry="9.11"/>
        <circle class="cls-8" cx="60.05" cy="91.11" r="6.39"/>
        <ellipse class="cls-7" cx="60.6" cy="89.54" rx="4.18" ry="4.7"/>
        <circle class="cls-9" cx="61.39" cy="87.5" r="2.46"/>
      </g>
      <g>
        <ellipse class="cls-4" cx="112.42" cy="83.15" rx="8.37" ry="9.11"/>
        <circle class="cls-8" cx="113.54" cy="83.15" r="6.39"/>
        <ellipse class="cls-7" cx="114.09" cy="81.58" rx="4.19" ry="4.7"/>
        <circle class="cls-9" cx="114.88" cy="79.54" r="2.46"/>
      </g>
      <path class="cls-3" d="M48.36,100.22c7.77-.63,13.55-.17,16.43,1.92"/>
      <path class="cls-3" d="M113.54,94.23c3.49-3.3,7.5-5.91,13.71-5.58"/>
      <path class="cls-6" d="M269.96,369.87c-2.86-8.22-1.28-14.43,4.76-18.62"/>
      <path class="cls-6" d="M277.44,370.62c-1.23-7.29-1.58-13.79,4.17-14.73"/>
      <path class="cls-6" d="M286.73,370.75c-.48-4.24-1.43-8.46,2.04-12.89"/>
      <path class="cls-5" d="M92.07,261.08c-2.02,3.9-5.99,6.86-11.88,8.88-4.03,1.38-7.88,3.33-11.12,6.1-7.89,6.75-13,15.84-14.38,28.05-3.71,10.87-8.7,18.67-15.95,21.1l-4.32,11.5c-6.75-1.17-12.45-1.11-17.3-.06-4.32.94-8.24,3.22-11.05,6.63-3.42,4.14-4.84,8.87-2.76,14.66,1.18,3.28,4.22,5.55,7.7,5.81,17.31,1.28,33.65.1,48.92-3.74,12.41-30.73,22.95-59.87,28.94-85.12h3.86c1.25,0,2.27-1.02,2.27-2.27h0c0-1.25,1.02-2.27,2.27-2.27h1.07c1.06,0,1.98-.73,2.21-1.77l1.07-4.73-9.56-2.78"/>
      <path class="cls-5" d="M7.53,363.49c-.37-9.86,2.21-15.89,10.27-14.83"/>
      <path class="cls-6" d="M3.3,357.95c-.37-9.86,3.68-15.12,11.74-14.06"/>
      <path class="cls-6" d="M164.65,330.89c-4.13,2.82-7.56,6.31-7.99,12.6"/>
      <path class="cls-6" d="M170.81,333.53c-4.5,4.15-8.01,8.37-6.16,13-4.47,1-6.87-.3-7.99-3.04"/>
      <path class="cls-1" d="M104.04,123.02c0,3.44-1.86,14.36-10.51,13.7-8.08-.61-13.5-7.51-13.5-10.96s5.72-4.08,12.04-4.08,11.97-2.11,11.97,1.33Z"/>
    </g>
  </g>
</svg>