<?xml version="1.0" encoding="UTF-8"?>
<svg id="Calque_2" xmlns="http://www.w3.org/2000/svg" viewBox="0 0 192 198.32">
  <defs>
    <style>
      .cls-1 {
        fill: #4b4456;
      }

      .cls-2 {
        fill: #fe9f90;
      }

      .cls-3 {
        fill: #ff5e53;
      }

      .cls-4 {
        fill: #4b4455;
      }

      .cls-4, .cls-5, .cls-6, .cls-7, .cls-8 {
        stroke: #000;
        stroke-miterlimit: 10;
      }

      .cls-5 {
        fill: #fff;
      }

      .cls-6 {
        fill: #4a4452;
      }

      .cls-9 {
        fill: #e90020;
      }

      .cls-7 {
        stroke-width: 4px;
      }

      .cls-7, .cls-8 {
        fill: none;
        stroke-linecap: round;
      }

      .cls-8 {
        stroke-width: 6px;
      }
    </style>
  </defs>
  <g id="Calque_1-2" data-name="Calque_1">
    <g>
      <path class="cls-5" d="M58.32,192.61c25.86,6.45,50.79,7.42,74.32,0l14.95-37.68-10.95-22.46H59.16l-11.16,25.25,10.32,34.9Z"/>
      <path class="cls-4" d="M7.4,51.32c6.93,8.53,23.65,6.43,37.34-4.7,13.69-11.12,19.17-27.05,12.24-35.58S29.81-6.21,11.73,8.15C-5.48,21.82.47,42.8,7.4,51.32Z"/>
      <path class="cls-4" d="M184.6,51.32c-6.93,8.53-23.65,6.43-37.34-4.7-13.69-11.12-19.17-27.05-12.24-35.58s27.15-17.26,45.23-2.9c17.22,13.67,11.27,34.65,4.34,43.18Z"/>
      <path class="cls-5" d="M181.37,74.39c-1.25-5.32-3.46-10.38-6.33-15.03-16.66-27-32.59-42.68-57.5-49.11-12.02-3.1-32.74-2.98-44.58.77-31.45,9.94-53.84,31.7-63.09,62.45-12.23,45.06,11.05,60.57,72.08,59.04l46.68-.04c2.42,0,4.85-.2,7.24-.61,31.57-5.34,54.64-18.68,45.49-57.47Z"/>
      <g>
        <path class="cls-1" d="M71.83,63.49c-5.65-8.04-16.9-10.53-28.19-4.01s-15.25,20.48-10.34,28.99c4.91,8.51,18.25,13.18,29.54,6.66s16.66-20.73,8.99-31.64Z"/>
        <path class="cls-8" d="M41.75,76.97c7.83-9.51,16.46-9.51,25.88,0"/>
        <path class="cls-3" d="M47.5,91.65c-4.25-5.85-13.71-5.97-19.84-1.52s-7.66,12.8-3.41,18.66,13.89,5.53,20.02,1.08,7.48-12.36,3.24-18.21Z"/>
        <g>
          <path class="cls-1" d="M121.79,63.49c5.65-8.04,16.9-10.53,28.19-4.01s15.25,20.48,10.34,28.99c-4.91,8.51-18.25,13.18-29.54,6.66s-16.66-20.73-8.99-31.64Z"/>
          <path class="cls-8" d="M151.87,76.97c-7.83-9.51-16.46-9.51-25.88,0"/>
          <path class="cls-3" d="M146.12,91.65c4.25-5.85,13.71-5.97,19.84-1.52s7.66,12.8,3.41,18.66-13.89,5.53-20.02,1.08-7.48-12.36-3.24-18.21Z"/>
        </g>
      </g>
      <path class="cls-9" d="M140.88,113.8c-12-18.44-37.07-18.09-46.58,0-9.29-17.73-34.36-18.8-46.71,0-12.01,25.03,12.01,50.11,46.65,75.21,30.63-22.39,58.47-47.81,46.65-75.21Z"/>
      <g>
        <path class="cls-4" d="M37.25,129.69c-6.38,6.45-9.1,15.75-5.11,25.15,9.12,4.28,18.15,2.77,27.15-.46,2.9-1.04,5.6-2.62,7.76-4.82,5.3-5.41,4.54-10.66-.26-15.81-3.45-3.7-8.47-5.55-13.53-5.26-5.32.3-9.37,1.69-12.8,3.61l-1.5-2.25c-.39-.58-1.21-.65-1.7-.15Z"/>
        <path class="cls-6" d="M153.4,128.56c6.22,6.22,8.85,15.98,4.91,25.26-9.16,4.3-18.27,2.42-27.3-.83-2.98-1.08-5.74-2.76-7.92-5.07-4.99-5.3-4.17-10.46.55-15.51,3.47-3.72,8.51-5.55,13.58-5.26s9.32,1.69,12.74,3.61l1.32-1.99c.48-.72,1.5-.81,2.11-.2Z"/>
      </g>
      <path class="cls-7" d="M83.11,87.55c1.87,10.69,5.91,11.89,12.23,3.12.6-.84,1.84-.81,2.41.04,5.88,8.81,9.95,7.64,12.18-3.71"/>
      <g>
        <path class="cls-4" d="M149.9,197.12c-13.42,1.53-21.33-2.79-22.06-15.18-.18-3.06.31-6.15,1.39-9.02,4.59-12.3,12.39-18.54,23.36-18.8,4.38-.1,8.7,1.17,12.37,3.57,5.21,3.41,8.79,7.94,8.09,15.4-.4,4.27-2.21,8.29-4.92,11.62l-3.5,4.29c-3.67,4.5-8.94,7.48-14.72,8.13Z"/>
        <ellipse class="cls-2" cx="162.04" cy="166.87" rx="3.73" ry="4.03"/>
        <circle class="cls-2" cx="153.21" cy="163.66" r="3.06"/>
        <circle class="cls-2" cx="166.41" cy="175.05" r="1.44"/>
        <path class="cls-2" d="M146.37,180.04c1.63,8.42,17.71,6.36,15.11-2.94-.84-4.04-3.09-6.77-8.08-6.91-1.01-.03-2.03.09-2.98.41-4.03,1.34-4.65,4.51-4.05,9.44Z"/>
      </g>
      <g>
        <path class="cls-4" d="M41.8,196.84c13.42,1.53,21.33-2.79,22.06-15.18.18-3.06-.31-6.15-1.39-9.02-4.59-12.3-12.39-18.54-23.36-18.8-4.38-.1-8.7,1.17-12.37,3.57-5.21,3.41-8.79,7.94-8.09,15.4.4,4.27,2.21,8.29,4.92,11.62l3.5,4.29c3.67,4.5,8.94,7.48,14.72,8.13Z"/>
        <path class="cls-2" d="M33.38,166.59c0,2.23-1.67,4.03-3.73,4.03s-3.73-1.8-3.73-4.03,1.67-4.03,3.73-4.03,3.73,1.8,3.73,4.03Z"/>
        <path class="cls-2" d="M41.54,163.37c0,1.69-1.37,3.06-3.06,3.06s-3.06-1.37-3.06-3.06,1.37-3.06,3.06-3.06,3.06,1.37,3.06,3.06Z"/>
        <circle class="cls-2" cx="25.29" cy="174.76" r="1.44"/>
        <path class="cls-2" d="M45.32,179.76c-1.63,8.42-17.71,6.36-15.11-2.94.84-4.04,3.09-6.77,8.08-6.91,1.01-.03,2.03.09,2.98.41,4.03,1.34,4.65,4.51,4.05,9.44Z"/>
      </g>
    </g>
  </g>
</svg>