<?xml version="1.0" encoding="UTF-8"?>
<svg id="Calque_2" xmlns="http://www.w3.org/2000/svg" viewBox="0 0 340.49 275.5">
  <defs>
    <style>
      .cls-1 {
        fill: #d8d8d8;
      }

      .cls-1, .cls-2, .cls-3, .cls-4, .cls-5 {
        stroke: #000;
        stroke-miterlimit: 10;
      }

      .cls-2 {
        fill: #8a6d59;
      }

      .cls-3 {
        fill: #c4a886;
      }

      .cls-4 {
        fill: none;
      }

      .cls-5 {
        fill: #e7d3ba;
      }
    </style>
  </defs>
  <g id="Calque_1-2" data-name="Calque_1">
    <g>
      <path class="cls-3" d="M134.78,12.63c125.49-28.39,205.63-10.28,205.21,90.42-.05,11.94-1.37,23.84-3.67,35.56l-12.01,61.12c-.97,4.95-2.88,9.71-5.85,13.79-19.61,26.97-65.03,8.15-61.08-30.28.19-1.84.65-3.64,1.18-5.41,2.41-8.1,2.08-19.65.59-32.66h-56.65c-7.28,20.89-14.15,53.71-20.93,89.18-2.8,20.57-18.27,18.96-35.25,14.69-18.34-4.09-15.51-55.09-14.32-102.45l2.79-133.96Z"/>
      <path class="cls-5" d="M22.58,144.44c-9.67-33.99-9.17-64.14,15.75-85.06,48.9-37.51,98.32-37.97,148.65,28.07,10.12,36.85.19,56.02-30.36,57-33.47,5.22-64.83,7.97-89.04,2.29-2.35-.55-4.74-.97-7.13-1.32-14.17-2.09-27.37-3.08-37.86-.97Z"/>
      <path class="cls-2" d="M22.58,144.44l.29-30.46c20.48-15.58,38.14-21.01,51.04-9.32,11.83,11.63,1.31,24.69-22.18,38.58l-29.15,1.2Z"/>
      <path class="cls-2" d="M147.9,59.56c-28.71,4.4-47.42,12.25-43.7,27.87.72,3.03,2.27,5.79,4.23,8.21,7.79,9.6,18.67,11.43,33.35,3.73,1.81-.95,3.67-1.83,5.55-2.63,14.47-6.16,29.88-11.68,39.65-9.3-11.12-16.89-16.48-37.2-39.08-27.89Z"/>
      <path d="M93.66,134.3c-13.65-6.19-12.06-14.15,1.3-23.48,10.17-7.2,18.19-7.73,22.18,4.29,1.2,17.85-5.6,25.56-23.48,19.2Z"/>
      <path class="cls-4" d="M119.38,141.94c10.81.93,16.9-3.98,18.27-14.72"/>
      <path class="cls-3" d="M.55,126.1c-.43,11.02,1.63,19.31,11.96,18.57,1.58-.11,3.16-.23,4.75-.23h5.31c1.43-31.55,3.24-62.58,18.03-76.03.7-.64,1.61-1.01,2.57-1.03,5.96-.14,10.6,1.97,13.8,6.55.43-7.12,2.53-13.62,8.17-18.81-.26,8.04.84,15.33,8.48,18.96-1.95-9.74-2.85-18.93,2.31-24.98l2.85,13.26c9.6-27.89,36.38-20.7,67.3-5.08l42.03,34.59c-10.86-37.63-27.24-67.24-55.5-79.56-9.63-4.2-20.25-5.55-30.67-4.28-12.19,1.48-22.9,3.66-30.89,7.14-2.62,1.14-5.71-.21-6.6-2.93s-.77-6.45.66-11.75c-5.61-.22-10.83,7.71-15.79,20.74-2.85-3.43-5.12-7.38-5.1-13.36-8.15,7-14.1,15.94-11.66,32.31C16.73,60.91,3.99,86.36.55,126.1Z"/>
      <path class="cls-4" d="M42.89,124.36c10.37,2.57,19.1,2.34,21.69-8.29"/>
      <path class="cls-4" d="M119.38,86.82c9.47,2.78,18.2,3.19,22.95-9.26"/>
      <path class="cls-1" d="M143.3,269.44c-4.71-8.22-6.94-16.4-3.32-24.5l6.32,4.1-1.33,20.01c-.06.88-1.24,1.16-1.68.39Z"/>
      <path class="cls-1" d="M159.82,272.96c-5.19-6.57-7.52-14.58-6.36-22.31,2.39.34,4.86.69,7.39,1.06l-.4,21.04c0,.33-.43.48-.64.22Z"/>
      <path class="cls-1" d="M174.45,274.84c-4.23-6.82-7.29-14.25-6.91-23.47,3.07-.45,5.81-1.16,7.15-2.92l.38,26.21c0,.34-.45.48-.63.19Z"/>
      <path class="cls-1" d="M269.6,241.03c-.41-8.91-.27-17.11,1.73-22.91l-7.38-7.87c-2.62,12.38-2.29,23.35,4.5,31.23.4.47,1.17.16,1.14-.46Z"/>
      <path class="cls-1" d="M279.16,222.94c-2.03,12.09.57,20.42,5.65,26.72.32.4.97.18.97-.34v-24.08c-2.18-.24-4.39-1.04-6.63-2.3Z"/>
      <path class="cls-1" d="M301.71,249.96c-4.52-7.43-7.86-15.1-5.92-23.83,2.74-.34,5.25-.79,7.48-1.41l-.44,24.94c-.01.6-.8.82-1.12.3Z"/>
    </g>
  </g>
</svg>