<?xml version="1.0" encoding="UTF-8"?>
<svg id="Calque_2" xmlns="http://www.w3.org/2000/svg" viewBox="0 0 440.72 447.73">
  <defs>
    <style>
      .cls-1 {
        fill: #030202;
      }

      .cls-2 {
        fill: #fadbc1;
      }

      .cls-2, .cls-3, .cls-4, .cls-5, .cls-6, .cls-7, .cls-8, .cls-9, .cls-10 {
        stroke: #000;
        stroke-miterlimit: 10;
      }

      .cls-3 {
        fill: #f1ad6f;
      }

      .cls-4 {
        fill: #8b5836;
      }

      .cls-11 {
        fill: #020202;
      }

      .cls-5, .cls-12 {
        fill: #fff;
      }

      .cls-6 {
        fill: #f4ab66;
      }

      .cls-7 {
        fill: none;
      }

      .cls-13 {
        fill: #fefefe;
      }

      .cls-8 {
        fill: #efad70;
      }

      .cls-9 {
        fill: #fadbc0;
      }

      .cls-10 {
        fill: #fbfbfa;
      }
    </style>
  </defs>
  <g id="Calque_1-2" data-name="Calque_1">
    <g>
      <path class="cls-4" d="M115.4,363.93c-33.83,14.57-68.61,7.92-85.36-24.62-.56-1.08-1.14-2.16-1.74-3.22-14.18-25.16-5.85-45.03,20.35-60.7,8.86-5.3,20.17-4.81,28.12,1.78,7.76,6.42,3.58,11.42-7.81,16.93-7.98,3.86-14.75,9.93-18.95,17.74-2.78,5.16-4.46,11.05-2.51,16.5,9.74,27.25,40.07,20.37,72.91,6.07l-5.01,29.55Z"/>
      <path class="cls-8" d="M119.03,377.88c-22.69,19.11-29.84,31.35-19.14,35.7,3.03,5.49,6.84,10.27,14.51,11.49,9.53,6.04,18.17,7.47,25.39,1.64l-1.17-32.83-19.59-16Z"/>
      <path class="cls-4" d="M139.8,326.17l-2.87,67.71c-17.6-9.1-27.36-21.48-24.72-39.08.15-1.02.3-2.03.43-3.05,2-15.69,11.02-24.24,27.16-25.58Z"/>
      <path class="cls-8" d="M318.99,383.92c14.54,9.72,28.13,19.56,16.39,33-3.36,7.3-9.19,9.37-16.39,8.55-6.2,3.01-12.82,2.76-19.74.17v-28.55l19.74-13.18Z"/>
      <path class="cls-4" d="M294.75,327.9l7.48,68.97c15.89-11.38,29.81-23.59,25.23-43.62-3.17-17.06-14.54-24.99-32.71-25.34Z"/>
      <path class="cls-7" d="M112.15,401.27c-6.39,4.36-10.89,8.68-8.32,17.96"/>
      <path class="cls-7" d="M123.35,406.19c-6.6,4.88-9.09,10.64-6.89,20.07"/>
      <path class="cls-7" d="M309.79,409.07c8.94,6.11,10.88,9.55,9.2,16.41"/>
      <path class="cls-7" d="M319.54,401.27c9.8,1.12,15.43,6.02,15.84,15.66"/>
      <path class="cls-8" d="M179.04,388.14c26.4,7.66,52.8,7.66,79.2,0l10.26-46.78-27.08-25.85h-30.98l-26.88,6.01-8.21,8.76-3.28,7.39,6.98,50.47Z"/>
      <path class="cls-6" d="M188.92,396.61c10.72,20.29,18.19,38.59,1.52,42.08-9.81,7.53-19.02,11.82-26.25,5.45-10.63,2.48-20.12,2.69-22.78-10.9l-6.56-29.33"/>
      <path class="cls-8" d="M243.85,401.55c-11.49,17.48-9.59,37.74,4.34,39.64,9.42,6.2,17.59,7.84,23.92,2.8,8.68,4.07,16.28,2.68,22.5-5.61,5.26-7.68,7.05-17.91,4.64-29.86l-55.4-6.98Z"/>
      <path class="cls-4" d="M285.01,288.4c23.24,50.64,27.66,80.88,13.31,126.87-2.36,7.56-57.7,1.14-54.77-13.72,9.33-24.47,20.51-34.76,14.29-69.81l1.74,15.55c-25.82,16.79-56.44,14.18-83.34,0l2.8-15.79c-5.79,26.25-4.67,34.93,9.88,65.1,2.2,4.56.26,10.06-4.34,12.18-9.71,4.48-26.91,7.67-39.37,6.05-5.61-.73-9.92-5.29-10.36-10.93-3.51-45.02-.23-77.69,18.33-119.18h129.54l2.28,3.67Z"/>
      <g>
        <path class="cls-9" d="M72.88,200.7c10.11-69.19,7.58-93.48,7.58-93.48-26.74-13.48-50.44-16.79-67.34,2.63-6.97,8.01-10.93,18.16-12.05,28.72-.67,6.33-.78,12.51-.18,18.51,3.27,32.68,35.21,55.1,66.63,45.56,1.8-.55,3.58-1.19,5.36-1.94Z"/>
        <path class="cls-3" d="M69.97,133.26c-12.95-9.8-25.4-15.34-35.95-4.86-10.96,11.4-14.48,24.08-8.88,38.33,2.81,7.14,7.55,13.42,13.69,18.03,9.73,7.32,19.75,8.32,30.17.39l.97-51.89Z"/>
      </g>
      <g>
        <path class="cls-9" d="M363.18,200.7c-10.75-69.19-8.07-93.48-8.07-93.48,28.46-13.48,53.69-16.79,71.66,2.63,7.42,8.01,11.63,18.16,12.83,28.72.72,6.33.83,12.51.19,18.51-3.48,32.68-37.47,55.1-70.91,45.56-1.91-.55-3.81-1.19-5.7-1.94Z"/>
        <path class="cls-3" d="M366.28,133.26c13.78-9.8,27.03-15.34,38.26-4.86,11.66,11.4,15.41,24.08,9.45,38.33-2.99,7.14-8.04,13.42-14.56,18.03-10.36,7.32-21.02,8.32-32.11.39l-1.03-51.89Z"/>
      </g>
      <ellipse class="cls-4" cx="216.85" cy="161.5" rx="154.18" ry="139.21"/>
      <path class="cls-4" d="M205.22,40.3c-21.62-18.01.32-44.38,42.72-39.11-9.48,6.74-17.05,13.71-9.56,22.46"/>
      <path class="cls-2" d="M217.1,108.75c42.07-22.63,83.48-40.93,115.76,0,65.35,78.48-2.63,175.98-112.57,179.61-92.67,3.2-181.21-83.51-126.38-171.83,30.74-42.47,73.92-36.91,123.2-7.78Z"/>
      <circle class="cls-5" cx="140.65" cy="165.28" r="37.86"/>
      <circle class="cls-1" cx="148.88" cy="167.53" r="29.63"/>
      <circle class="cls-12" cx="152.91" cy="153.02" r="12.26"/>
      <circle class="cls-10" cx="294.57" cy="165.28" r="37.26"/>
      <circle class="cls-11" cx="287.08" cy="167.53" r="29.77"/>
      <circle class="cls-13" cx="295.62" cy="155.79" r="11.74"/>
      <path class="cls-7" d="M175.62,229.89c25.99,22.73,53.94,24.59,84.36,0"/>
      <path d="M252.58,228.81c4.43-.93,8.55-.12,11.6,6.77,1.22-.75,1.2-2.35-.47-5.08-2.36-3.86-7.69-4.76-11.06-1.74l-.06.05Z"/>
      <path d="M172.64,236.44c.41-4.51,2.38-8.21,9.87-9.11-.36-1.38-1.89-1.83-5-1.03-4.38,1.13-6.8,5.96-4.9,10.07l.03.07Z"/>
      <path class="cls-7" d="M159,425.48c-1.73,6.22,0,12.44,5.2,18.65"/>
      <path class="cls-7" d="M176.09,424.08c3.95,6.82,8.28,12.76,14.36,14.61"/>
      <path class="cls-7" d="M259.49,422.01c-1.37,7.14-5.39,13.51-11.76,19.18"/>
      <path class="cls-7" d="M282.24,425.55c-.03,10.19-3.31,14.06-11.22,19.18"/>
    </g>
  </g>
</svg>