<svg width="532" height="408" viewBox="0 0 532 408" fill="none" xmlns="http://www.w3.org/2000/svg">
<path d="M469.283 290.948L508.886 301.56L503.969 319.912L464.366 309.301L469.283 290.948Z" fill="#FDD87A"/>
<path d="M390.715 275.072L412.931 281.025L410.602 289.719L388.386 283.766L390.715 275.072Z" fill="#FDD87A"/>
<path d="M428.031 270.185L459.545 275.742L457.114 289.529L425.6 283.972L428.031 270.185Z" fill="#FDD87A"/>
<path d="M364.789 264.152L380.546 266.93L379.851 270.869L364.094 268.091L364.789 264.152Z" fill="#FDD87A"/>
<path d="M471.59 250.533H512.59V269.533H471.59V250.533Z" fill="#FDD87A"/>
<path d="M391.59 255.533H414.59V264.533H391.59V255.533Z" fill="#FDD87A"/>
<path d="M426.369 241.154L458.247 238.365L459.467 252.312L427.589 255.101L426.369 241.154Z" fill="#FDD87A"/>
<path d="M363.72 251.695L379.659 250.3L380.008 254.285L364.069 255.68L363.72 251.695Z" fill="#FDD87A"/>
<path d="M463.357 210.898L502.96 200.287L507.877 218.639L468.274 229.251L463.357 210.898Z" fill="#FDD87A"/>
<path d="M387.377 236.433L409.593 230.481L411.923 239.174L389.706 245.127L387.377 236.433Z" fill="#FDD87A"/>
<path d="M417.25 213.543L447.32 202.598L452.108 215.754L422.038 226.698L417.25 213.543Z" fill="#FDD87A"/>
<path d="M359.464 239.939L374.499 234.467L375.867 238.226L360.832 243.698L359.464 239.939Z" fill="#FDD87A"/>
<path d="M445.147 174.745L480.654 154.245L490.154 170.699L454.647 191.199L445.147 174.745Z" fill="#FDD87A"/>
<path d="M378.365 219.075L398.283 207.575L402.783 215.369L382.865 226.869L378.365 219.075Z" fill="#FDD87A"/>
<path d="M401.295 189.232L427.508 170.878L435.538 182.346L409.325 200.701L401.295 189.232Z" fill="#FDD87A"/>
<path d="M352.31 229.685L365.416 220.508L367.711 223.785L354.604 232.962L352.31 229.685Z" fill="#FDD87A"/>
<path d="M418.2 144.536L447.191 115.545L460.626 128.98L431.635 157.971L418.2 144.536Z" fill="#FDD87A"/>
<path d="M365.167 204.64L381.43 188.377L387.794 194.741L371.531 211.004L365.167 204.64Z" fill="#FDD87A"/>
<path d="M379.592 169.88L400.161 145.366L410.886 154.365L390.316 178.879L379.592 169.88Z" fill="#FDD87A"/>
<path d="M342.746 221.633L353.031 209.376L356.095 211.947L345.81 224.204L342.746 221.633Z" fill="#FDD87A"/>
<path d="M384.352 122.331L404.852 86.8242L421.307 96.3242L400.807 131.831L384.352 122.331Z" fill="#FDD87A"/>
<path d="M348.682 194.113L360.182 174.195L367.977 178.695L356.477 198.613L348.682 194.113Z" fill="#FDD87A"/>
<path d="M353.619 156.804L367.143 127.802L379.832 133.719L366.308 162.72L353.619 156.804Z" fill="#FDD87A"/>
<path d="M331.424 216.33L338.186 201.829L341.811 203.519L335.049 218.02L331.424 216.33Z" fill="#FDD87A"/>
<path d="M345.911 109.643L356.523 70.0405L374.875 74.9581L364.264 114.561L345.911 109.643Z" fill="#FDD87A"/>
<path d="M330.035 188.212L335.988 165.995L344.682 168.325L338.729 190.541L330.035 188.212Z" fill="#FDD87A"/>
<path d="M325.148 150.896L330.705 119.382L344.492 121.813L338.935 153.327L325.148 150.896Z" fill="#FDD87A"/>
<path d="M319.115 214.138L321.893 198.381L325.832 199.076L323.054 214.832L319.115 214.138Z" fill="#FDD87A"/>
<path d="M18.5 318.5H57.5L78.5 131.5L163 304H189.5L280 124.5L298.5 318.5H358.5L322 33H290.5L179 250L82 33H61L18.5 318.5Z" fill="#1E1B16"/>
<path d="M96 33H125.5L180.5 164.5L245.5 33H275L180.5 218L96 33Z" fill="#1E1B16"/>
<path d="M332 332.5C239.5 331.5 161 387 161 387C161 387 217.5 352.5 281 352.5C357.5 352.5 353 380.5 413 380.5C483.5 380.5 531.5 334 531.5 334C531.5 334 499.5 362 470 362C424.5 362 392 332.5 332 332.5Z" fill="#295B96"/>
<path d="M264 281.013C171.5 280.013 93 335.513 93 335.513C93 335.513 149.5 301.013 213 301.013C289.5 301.013 285 329.013 345 329.013C415.5 329.013 463.5 282.513 463.5 282.513C463.5 282.513 431.5 310.513 402 310.513C356.5 310.513 324 281.013 264 281.013Z" fill="#33A8BC"/>
<path d="M190 228.013C97.5 227.013 19 282.513 19 282.513C19 282.513 75.5 248.013 139 248.013C215.5 248.013 211 276.013 271 276.013C341.5 276.013 389.5 229.513 389.5 229.513C389.5 229.513 357.5 257.513 328 257.513C282.5 257.513 250 228.013 190 228.013Z" fill="#A9D6DC"/>
</svg>
