<?xml version="1.0" encoding="UTF-8"?>
<svg id="Calque_2" data-name="Calque 2" xmlns="http://www.w3.org/2000/svg" viewBox="0 0 885.31 23.96">
  <defs>
    <style>
      .cls-1 {
        fill: #5f021f;
      }

      .cls-2 {
        fill: #d8b384;
      }
    </style>
  </defs>
  <g id="Calque_1-2" data-name="Calque 1">
    <g>
      <path class="cls-2" d="M4.23,14.02l859.74,9.94c3.82.04,6.94-3.05,6.94-6.87l-.02-10.24c0-3.78-3.08-6.85-6.87-6.84L4.27,1.25l-.03,12.78Z"/>
      <path class="cls-2" d="M868.26,0l9.11,2.31c1.17.3,1.99,1.35,1.99,2.55l.03,15.4c0,1.34-1,2.47-2.33,2.63l-8.86,1.06.05-23.95Z"/>
      <polygon class="cls-1" points="578.85 9.85 433.01 18.95 868.21 23.95 868.26 0 433.15 .63 578.85 9.85"/>
      <path class="cls-1" d="M879.3,21.1l4.51-3.01c.96-.64,1.52-1.73,1.5-2.91l-.13-6.55c-.03-1.34-.81-2.58-2.02-3.2l-4.25-2.17.4,17.83Z"/>
      <polygon class="cls-1" points="8.92 14.08 8.39 1.24 33.05 1.2 33.38 14.36 8.92 14.08"/>
      <path d="M8.92,14.08l-4.6-.02C1.93,14.04,0,12.1,0,9.7v-4.13C.02,3.19,1.95,1.25,4.34,1.25h4.05s.53,12.83.53,12.83Z"/>
    </g>
  </g>
</svg>