<?xml version="1.0" encoding="UTF-8"?>
<svg id="Calque_2" xmlns="http://www.w3.org/2000/svg" viewBox="0 0 362.23 385.28">
  <defs>
    <style>
      .cls-1 {
        fill: #e8903b;
      }

      .cls-1, .cls-2, .cls-3, .cls-4, .cls-5, .cls-6, .cls-7, .cls-8, .cls-9, .cls-10, .cls-11, .cls-12, .cls-13 {
        stroke: #000;
        stroke-miterlimit: 10;
      }

      .cls-14 {
        fill: #fffffa;
      }

      .cls-2 {
        fill: #e6e5e6;
      }

      .cls-3 {
        fill: #c8bfbd;
      }

      .cls-4 {
        fill: #f9aaa9;
      }

      .cls-5 {
        fill: #ffbc17;
      }

      .cls-6 {
        fill: #e6913d;
        stroke-width: .75px;
      }

      .cls-7 {
        fill: #fff;
      }

      .cls-15 {
        fill: #000200;
      }

      .cls-8 {
        fill: #d12a2a;
      }

      .cls-16 {
        fill: #fafafa;
      }

      .cls-9 {
        fill: #c1534d;
      }

      .cls-10 {
        fill: none;
      }

      .cls-11 {
        fill: #e0dede;
      }

      .cls-12 {
        fill: #e7913b;
      }

      .cls-13 {
        fill: #532e19;
      }
    </style>
  </defs>
  <g id="Calque_1-2" data-name="Calque_1">
    <g>
      <path class="cls-1" d="M175.09,335.2c2.42,6.03,3.74,11.63,2.67,16.29-.32,1.38-.48,2.79-.3,4.19.56,4.46,2.1,7.68,6.23,7.58l20.54,5.37,3.89-24.97-5.37-10.88-8.86-6.85-18.8,9.26Z"/>
      <path class="cls-11" d="M229.47,340.63c17.27-1.28,32.51-.63,32.94,14.09-.2,5.27-1.18,9.47-4.91,9.98-3.04,3.25-6.49,5.19-10.93,3.93-2.02,1.62-3.97,2.74-5.7,2.09-7.11-6.99-10.35-17.54-11.4-30.09Z"/>
      <path class="cls-1" d="M295.13,343.25l-28.36,13.89-30.62-67.49,29.49-52.46c7.89,16.89,13.6,36.58,16.45,59.97,3.79,19.54,7.83,37.15,13.04,46.08Z"/>
      <path class="cls-11" d="M267.19,353.6c5.73-7,12.49-13.05,27.15-11.77,2.02,1.7,4.07,3.47,6.03,4.99,4.31,3.34,7.47,8,8.61,13.34,1.05,4.92.44,8.44-4.27,8.48h-3.89c-2.58,1.12-5.22,1.49-7.93,1.12-7.65,3.2-14.73,3.44-20.91-1.12l-5.27-10.87c-.66-1.36-.48-2.99.48-4.16Z"/>
      <path class="cls-1" d="M62.34,335.64l-5.9-58.78c-2.04-13.68-4.85-25.9-9.3-34.95-17.5,5.12-34.15,10.42-37.45,18.61,6.66,11.87,11.26,23.19,11.57,33.36,6.2,25.2,16.45,44.31,41.08,41.76Z"/>
      <path class="cls-2" d="M10.92,262.74c2.33-4.07,5.17-7.11,9.91-6.2,1.11.21,2.23.39,3.36.37,5.44-.06,9.8-1.31,11.32-5.64.59-1.69,1.7-3.15,3.27-4.01,2.93-1.6,6.05-2.68,9.49-2.9-4.89-10.04-9.93-19.61-17.25-22.65-3.7-1.86-5.91-.74-5.45,5.67-6.18-7.45-12.89-13.26-23.13-8.08-1.6.81-2.28,2.74-1.61,4.4l5.9,14.58c-4.69.97-8.61,2.45-4.54,9.22l7.49,13.02"/>
      <path class="cls-1" d="M305.72,17.14c8.3.54,15.48,2.63,20.4,7.8l33.21,48.61c5.42,15.38,2.39,27.33-16.6,32.81l-40.01-44.61,3-44.61Z"/>
      <path class="cls-1" d="M194.93,118.3c36.5,2.43,58.28,13.68,78.81,25.67,28.58,7.54,52.12,3.11,55.35-22.78,10.74,1.43,12.75-13.44,12.63-32.31-.75-5.42-12.01-10.49-23.2-15.57,2.92-14.8-2.58-34.97-9.69-56.17C286.97-.1,259.21-4.54,224.23,6.64l-35.54,4.41c-14.18,17.31-31.16,34.17-50.23,50.71-2.69,15.32,8.39,27.56,27.61,38,9.43,3.78,18.18,6.14,25.26,4.99-.15,4.97.56,9.65,3.59,13.56Z"/>
      <path class="cls-1" d="M150.44,348.72c-6.5-1.46-29.3-6.65-23.75-8.53,43.1.9,83.03-5.5,112.32-36.32,30.75-43.52,36.68-99.7,34.73-159.89-18-14.56-45.49-22.24-78.81-25.67-11.12,6.43-22.11,14.38-32.56,28.58-15.88,16.92-35.83,31.88-60.04,44.76-29.01,24.63-49.22,54.65-48.83,97.25-2.24,31.19,2.19,56.96,26.77,56.57,5.45,1.43,5.87,5.13.72,11.37-3.03,7.37-.84,12.94,6.15,16.85,24.87,6.79,49.29,12.81,69.09,10.65,6.54.44,12.57.3,14.47-4.5"/>
      <path class="cls-3" d="M126.69,340.19c95.39,1.54,144.11-33.61,147.05-169.25l-11.26,2.84c-1.52.38-2.58,1.75-2.59,3.32-.71,121.45-50.05,100.45-97.53,121.76l-35.67,41.33Z"/>
      <path class="cls-12" d="M125.62,340.59c29.66-8.08,50.51-40.95,31-70.58"/>
      <path class="cls-2" d="M150.44,348.72c-16.27,9.87-19.52,22.61-18.65,34.92,9.14,1.07,17.63,1.59,24.43.68,6.46.65,12.01.09,14.47-4.5,6.03-2.17,9.62-6.06,7.28-14.1-1.12-10.45-10.3-16.12-27.54-17.01Z"/>
      <path class="cls-10" d="M150,366.75c7.87,2.56,13.17,6.59,6.22,17.57"/>
      <path class="cls-10" d="M163.53,362.86c5.71,4.09,9.42,9.12,7.16,16.96"/>
      <path class="cls-6" d="M239.01,266.19c-3.49,35.96-8.23,78.79-2.87,93.28l-33.81,10.48c-1-23.99-5.76-51.82-12.46-81.64"/>
      <path class="cls-11" d="M203.94,363.45c10.48-3.55,20.52-6.45,28.67-6.62,1.63-.04,3.1.97,3.77,2.45,1.06,2.33,2.25,4.48,3.72,6.26,1.57,1.9,2.74,4.1,3.25,6.5,1.85,8.7.74,12.74-7.81,11.59-2.84.57-5.71.98-8.74,0-7.92,1.03-15.43.99-22.26-.74-.87-.22-1.49-1-1.54-1.9l-.86-14.87c-.07-1.19.67-2.29,1.8-2.67Z"/>
      <path class="cls-11" d="M223.11,369.94c3.7,4.47,6.17,8.99,3.69,13.7"/>
      <path class="cls-11" d="M231.87,369.94c3.67,2.9,4.89,7.46,3.67,13.7"/>
      <path class="cls-11" d="M287.87,357.15c4.75,3.86,6.69,8.03,5.02,12.6"/>
      <path class="cls-11" d="M293.48,355.55c6.02,1.67,8.47,6.03,7.34,13.08"/>
      <path class="cls-3" d="M257.09,133.61c-2.27-5.37-3.81-10.54-4.28-15.42-1.08-11.24,5.95-21.63,16.68-25.15,19.85-6.51,42.39-8.41,70.92,0,1.61.48,2.61,2.09,2.36,3.75-2.34,15.39-5.71,27.54-13.97,24.41-3.04,22.02-20.59,30.37-55.06,22.78-7.6-2.01-14.18-4.74-16.65-10.37Z"/>
      <path class="cls-10" d="M269.06,107.7c12.2,15.75,28.74,19.87,50.73,9.36,3.33,2.36,6.25,4.25,8.68,3.94"/>
      <path class="cls-10" d="M266.21,110.55c1.61-1.99,3.35-3.55,5.36-4.19"/>
      <path class="cls-9" d="M319.79,117.06l3.41,2.27c.12,2.46-.68,4.72-2.2,6.82-.77,1.06-1.97,1.74-3.27,1.9-4.97.61-7.8-2.51-10.13-6.5,4.53-.51,9.65-2.16,12.19-4.48"/>
      <path class="cls-4" d="M289.27,128.4c1.03.39,1.82,1.22,2.13,2.28,1.69,5.9,4.43,9.78,8.87,10.38,8.98,2.37,13.87-.67,13.34-10.86-.02-.3-.08-.6-.19-.88-1.65-4.27-3.41-7.94-5.82-7.78-9.8,2.63-18.76,1.41-26.97-3.24,1.16,4.39,3.43,8.12,8.63,10.1Z"/>
      <path class="cls-13" d="M302.43,84.08c10.59-3.97,21.79-6.21,36.62,2.03,1.41.78,2.11,2.42,1.76,3.99-1.5,6.65-5.53,12.11-14.02,15.47-.7.28-1.46.42-2.21.42-7.17,0-13.88-2.1-19.74-8.09-4.86-4.31-7.29-8.25-5.35-11.49.66-1.1,1.74-1.88,2.94-2.33Z"/>
      <path class="cls-7" d="M277.97,64.81c0-9.1-7.4-20.77-14.1-20.77s-14.45,12.14-14.45,21.24,7.75,16.02,14.45,16.02,14.1-7.38,14.1-16.48Z"/>
      <path class="cls-15" d="M276.93,68.44c0,5.99-5.55,12.85-13.06,12.85s-14.13-6.87-14.13-12.85,6.09-14.65,13.59-14.65,13.59,8.67,13.59,14.65Z"/>
      <circle class="cls-14" cx="260.21" cy="64.12" r="4.11"/>
      <ellipse class="cls-7" cx="314.15" cy="62.11" rx="7.79" ry="14.57"/>
      <ellipse class="cls-15" cx="314.57" cy="66.75" rx="7.79" ry="9.85"/>
      <ellipse class="cls-16" cx="312.95" cy="63.75" rx="2.1" ry="3.12"/>
      <path class="cls-10" d="M224.21,15.11c-4.56,27.04-8.9,53.9-6.98,76.11-6.59,8.6-15.22,13.11-25.9,13.52"/>
      <path class="cls-10" d="M302.72,131.48c1.06-3.17,1.27-6.23-3.57-8.61"/>
      <path class="cls-10" d="M319.85,117.53c2.33-3.15,4.38-6.32,2.29-9.82"/>
      <path class="cls-8" d="M187.54,122.87c7.18,28.61,20.23,63.66,86.2,59.27v-16.97c-37.6,9.15-74.18-18.45-78.71-46.23-.05-.31-.39-.47-.65-.3l-6.84,4.23Z"/>
      <circle class="cls-5" cx="254.93" cy="195.04" r="12.52"/>
      <path class="cls-11" d="M240.68,356.83c4.47,2.53,6.92,6.19,5.9,11.8"/>
      <path class="cls-11" d="M252.7,355.55c2.86,1.14,4.66,3.89,4.8,9.15"/>
    </g>
  </g>
</svg>