<?xml version="1.0" encoding="UTF-8"?>
<svg id="Calque_2" xmlns="http://www.w3.org/2000/svg" viewBox="0 0 373.2 539.78">
  <defs>
    <style>
      .cls-1 {
        fill: #030303;
      }

      .cls-2 {
        stroke: #fff;
        stroke-width: .25px;
      }

      .cls-2, .cls-3, .cls-4, .cls-5, .cls-6, .cls-7, .cls-8, .cls-9, .cls-10, .cls-11 {
        stroke-miterlimit: 10;
      }

      .cls-2, .cls-6 {
        fill: #fcfbfa;
      }

      .cls-3, .cls-4, .cls-5, .cls-6, .cls-7, .cls-8, .cls-9, .cls-10, .cls-11 {
        stroke: #000;
      }

      .cls-3, .cls-12 {
        fill: #dc1f2d;
      }

      .cls-4 {
        fill: #eb7e29;
      }

      .cls-5 {
        fill: #1a7953;
      }

      .cls-6 {
        stroke-width: .75px;
      }

      .cls-7 {
        fill: #115171;
      }

      .cls-13 {
        fill: #2b2c2a;
      }

      .cls-8 {
        fill: none;
      }

      .cls-9 {
        fill: #fbfbfd;
      }

      .cls-14 {
        fill: #fbfbf9;
      }

      .cls-10 {
        fill: #f4c24f;
      }

      .cls-11 {
        fill: #d91e2c;
      }
    </style>
  </defs>
  <g id="Calque_1-2" data-name="Calque_1">
    <g>
      <path class="cls-5" d="M2.08,233.33c50.82-33.53,114.47-2.49,128.58,51.43l2.55,11.64,10.41-4.86c-4.13-42.22-16.83-78.37-58.34-94.13-10.21-3.88-21.3-4.97-32.09-3.31-28.44,4.39-46.02,17.05-51.11,39.22Z"/>
      <path class="cls-5" d="M5.79,314.44c14.98-34.37,48.66-75.41,89.91-52.16,5.6,3.16,10.42,7.54,14.06,12.84l18.26,26.59,4.07-8.47c-4.75-35.59-38.98-80.33-86-59.96-10.02,4.34-19.47,9.96-26.63,18.21-18.87,21.73-24.11,42.75-13.67,62.96Z"/>
      <path class="cls-7" d="M122.94,296.28c-23.28-45.95-53.88-50.24-82.75-21.69-4.4,4.35-7.8,9.64-9.99,15.43-15.16,40.09-1.82,64,22.25,81.84-22.71-39.99,4.75-124.73,61.69-75.58h8.81Z"/>
      <path class="cls-7" d="M78.88,377.63c-13.35-37.13-10.38-74.18,35.25-81.34,0-12.81-17.54-14.05-28.45-13.91-13.93.18-26.31,8.93-31.84,21.72-14.49,33.49,5.61,62.64,25.04,73.53Z"/>
      <path class="cls-5" d="M113.49,382.33c-28.02-20.65-29.8-41.29-5.35-61.94-12.08,18.01-15.46,34.74,5.35,47.9-1.38-8.22-1.06-15.69,4.37-20.89l11.18,16.21,14.58-66.62c-68.45-5.35-88.35,20.08-63.96,73.59,2.71,5.94,9.32,10.6,17.6,11.88,5.12.8,10.55.71,16.23-.13Z"/>
      <path class="cls-10" d="M204.37,506.68c14,7.94,23.97,17.33,18.32,32.33l-11.31-7.54s-.09.02-.14.03c-6.13,1.16-12.25-2.01-15.27-7.47-8.91-16.09-20.33-25.61-44.93-16.26,2.04-12.98,12.09-14.92,26.94-10.24l2.69-53.88h11.85c-.16,17.34.49,33.56,3.88,45.94,1.19,4.33,5.01,7.42,9.47,7.82,27.67,2.49,36.83,14.02,32.98,31.91-4.85-4.31-9.7-5.75-14.55-4.31"/>
      <path class="cls-10" d="M259.15,487.93c14.46,2.75,25.42,7.16,31.06,14.1,3.38,4.17,4.85,9.24,4,15.42l-6.37-5.2c-2.19-3.28-6.35-1.7-10.57,0l-29.02-13.92c-6.33-4.59-15.93-1.31-26.1,3.36-1.2-9.03,7.35-18.36,19.93-20.86,7.48-3.89,2.45-28.49-2.39-48.78h15.61c1.12,16.82,2.04,38.32,6.08,46.1.72,1.38,2.14,2.24,3.69,2.29,24.02.74,40.72,5.53,38.21,20.91-5.06-.7-7.97-.98-12.33,1.64"/>
      <path class="cls-5" d="M270.68,398.05c-1.55,14.76-5.73,28.97-13.23,34.3-6.77,4.8-15.95,4.38-21.8-1.51-5.33-5.36-8.48-14.19-11.09-23.89l46.12-8.89Z"/>
      <path class="cls-5" d="M324.85,284.22l-70.27-23.65-19.6,19.93-124.33,54.39c3.72,37.99,24.85,60.13,53.48,75.45l1.41-6.9c-2.26,55.7,39.76,49.16,52.99,13.4,63.5-8.68,111.72-47.15,106.32-132.62Z"/>
      <path class="cls-4" d="M215.36,238.91c-26.67,40.75-62.3,61.19-101.18,50.94,4.61,10.55,10.73,18.57,22.5,17.25-10.11-.4-20.11-1.81-29.24-10.81-2.86,10.82,5.51,22.04,26.71,33.72l-27.25-6.5c6.83,16.55,17.24,30.07,48.08,26.29l112.95-98.85-52.57-12.03Z"/>
      <path class="cls-4" d="M177.56,357.28c-6.72,11.44-17.83,19.54-31.45,25.73,28.84,11,58.41,5.29,88.87-20.98,3.56-3.07,6.6-6.72,8.97-10.78,11.59-19.84,15.98-37.27,8.19-50.64-6.26-10.74-18.76-16.01-31.06-14.2-13.2,1.94-23.72,9.2-31.75,21.39-.71,1.07-1.43,2.14-2.22,3.15-15.29,19.73-33.35,38.06-53.91,55.12,17.12,2.06,33.17,1.82,44.34-8.79Z"/>
      <path class="cls-4" d="M224.55,244.82c-2.14,11.36-9.16,21.37-20.51,30.18,12.26-2.76,23.68-6.61,32.06-14.43l-4.42,24.8c9.42-4.67,17.5-9.73,20.44-16.3l8.86,21.59c4.73-3.96,8.54-8.09,8.92-12.89,4.46,9.11,9.11,17.29,14.98,19.16,4.74-1.43,6.35-8.82,8.04-16.08,3.22,7.64,7.06,14.36,14.76,15.31l.55-14.2c7.79,4.54,15.57,6.72,23.35,6.28-13.96-20.46-22.61-41.73-21.73-64.45l1.75-119.98c-14.4-24.12-33.32-37.1-63.74-21.75-28.2,14.68-45.43,44.32-36.24,83.74,9.57,38.83,11.44,72.72-7.56,93.23,7.52-.88,14.64-3.97,20.51-14.21Z"/>
      <path class="cls-3" d="M296.59,168.29l13.3,52.23c8.06,4.73,15.78,7.47,22.52,4.44,6.17-2.77,9.58-9.64,8.22-16.27-.84-4.1-3.33-7.94-7.79-11.46-1.82-1.44-3.55-3.01-5.13-4.71-5.09-5.49-8.04-11.24-8.95-17.24l-22.17-7Z"/>
      <path class="cls-12" d="M327.84,167.04c-9.08,7.58-18.16,10.66-27.25,9.25l-4-13.25,31.24,4Z"/>
      <path class="cls-3" d="M288.35,161.29c-2.2,12.39-6.67,23.52-12.87,33.71-3.13,5.15-5.31,10.86-6.24,16.82-1.83,11.69,1.6,21.19,16.36,25.95,22.08-3.29,33.28-16.04,18.25-51.6l-7.25-20.64-8.25-4.25Z"/>
      <path class="cls-11" d="M220.76,124.99l85.83-21.46c41.2-6.55,49.7-66.98,12.78-94.15-5.72-4.21-13.64-4.28-19.15.21-5.04,4.11-8.66,10.07-10.46,18.43-12.05-38.79-40.93-35.92-40.52,4.54-26.82-17.74-49.11-9.08-33.84,21.46-26.86-2.89-35.9,15.68-17.33,33.42-21.46,11.55-18.16,37.55,14.99,33.71l7.7,3.84Z"/>
      <ellipse class="cls-9" cx="267.11" cy="121.21" rx="27.86" ry="30.8"/>
      <ellipse class="cls-1" cx="267.8" cy="124.13" rx="11.67" ry="13.41"/>
      <ellipse class="cls-6" cx="270.14" cy="119.29" rx="4.42" ry="5.55"/>
      <path class="cls-2" d="M327.65,134.88c5-19.99,1.97-31.82-13.2-31.3-1.83.06-3.56.94-4.63,2.43-5.27,7.35-7.42,16.35,4.01,28.87,4.23-.99,10.39-1.22,13.82,0Z"/>
      <ellipse class="cls-13" cx="309.87" cy="124.31" rx="6.15" ry="10.57"/>
      <circle class="cls-14" cx="312.26" cy="122.85" r="3.63"/>
      <path class="cls-10" d="M311.1,137.54c-2.16-7.79,18.8-2.46,37.25,3.18,16.15,11.95,25.57,24.47,24.21,37.92-10.16-10.44-23.21-15.73-42.16-10.55-.48.13-.98.25-1.48.34-20,3.53-35.44-.93-46.34-13.38,13.18-.72,21.69-5.38,28.5-17.5Z"/>
      <path class="cls-8" d="M311.59,103.8c15.33-2.6,21.65,6.49,16.05,31.08"/>
    </g>
  </g>
</svg>