<?xml version="1.0" encoding="UTF-8"?>
<svg id="Calque_2" xmlns="http://www.w3.org/2000/svg" viewBox="0 0 411.4 319.01">
  <defs>
    <style>
      .cls-1 {
        fill: #05a504;
      }

      .cls-1, .cls-2, .cls-3, .cls-4, .cls-5, .cls-6, .cls-7, .cls-8, .cls-9, .cls-10, .cls-11, .cls-12 {
        stroke: #000;
        stroke-miterlimit: 10;
      }

      .cls-1, .cls-2, .cls-3, .cls-4, .cls-6, .cls-7, .cls-9, .cls-11, .cls-12 {
        stroke-width: .5px;
      }

      .cls-13 {
        fill: #fe91ad;
      }

      .cls-2 {
        fill: #fd2003;
      }

      .cls-3 {
        fill: #e6120a;
      }

      .cls-4 {
        fill: #fb2106;
      }

      .cls-5 {
        fill: #c55003;
      }

      .cls-5, .cls-10 {
        stroke-width: 2px;
      }

      .cls-14 {
        fill: #236dff;
      }

      .cls-15 {
        fill: #070504;
      }

      .cls-16 {
        fill: #f9fefd;
      }

      .cls-17 {
        fill: #fdfdfc;
      }

      .cls-7 {
        fill: #11af13;
      }

      .cls-18 {
        fill: #fff;
      }

      .cls-19 {
        fill: #a54302;
      }

      .cls-20 {
        fill: #fffbfa;
      }

      .cls-8 {
        stroke-width: .25px;
      }

      .cls-8, .cls-9, .cls-10 {
        fill: none;
      }

      .cls-21 {
        fill: #550105;
      }

      .cls-22 {
        fill: #1a63f9;
      }

      .cls-23 {
        fill: #eef8fa;
      }

      .cls-24 {
        fill: #2c6df6;
      }

      .cls-11 {
        fill: red;
      }

      .cls-12 {
        fill: #37bb36;
      }
    </style>
  </defs>
  <g id="Calque_1-2" data-name="Calque_1">
    <g>
      <g>
        <g>
          <path class="cls-1" d="M355.02,80.4c-4.12-1.45-16.34-10.31-30.12-12.33-3.84-.57-11.92-.73-15.52.64-16.99,6.45-25.95,17.01-28.6,31.62,13.29,8.4,31.52,10.04,43.83.23,3.17-2.53,5.61-3.53,8.57-5.85,11.75-9.21,10.54-9.67,21.84-14.3Z"/>
          <path class="cls-8" d="M284.43,97.85c5.74-5.87,12.75-10.39,21.11-13.47,12.5-4.61,27.68-4.45,46.87-3.83"/>
          <path class="cls-8" d="M312.9,71.59c-4.15,4.83-7.28,9.32-7.37,12.79"/>
          <path class="cls-8" d="M310.95,98.73c-6.2-3.53-12.4-6.88-18.41-7.69"/>
          <path class="cls-8" d="M326.23,90.03c-4.15-4.15-8.32-8.25-14.21-7.68"/>
          <path class="cls-8" d="M334.05,72.64c-4.05,2.87-7.44,5.61-8.87,7.95"/>
        </g>
        <g>
          <path class="cls-12" d="M288.55.58c-.88,10.42-2.85,17.78-10.49,29.56-2.11,3.26-4.71,11.39-5.54,15.15-3.92,17.75,3.37,32.59,14.13,42.82,14.31-6.5,22.32-20.51,25.65-35.89.79-3.67.8-7.47-.01-11.14-3.26-14.62-11.91-27.92-23.74-40.51Z"/>
          <path class="cls-9" d="M287.56,86.76c14.18-25.7,9.32-62.87.87-84.92"/>
          <path class="cls-9" d="M300.47,25.81c-1.32,3.67-2.83,6.41-4.65,7.61"/>
          <path class="cls-9" d="M284.32,34.76c5.63,4.22,11.18,8.43,12.23,12.07"/>
          <path class="cls-9" d="M307.5,47.23c-3.21,4.77-6.78,8.5-11.36,9.27"/>
          <path class="cls-9" d="M278.16,53.22c6.85,7.05,14.35,14.26,15.01,19.74"/>
        </g>
        <g>
          <path class="cls-7" d="M220.68,47.77c6.72,6.95,12.23,15.86,15.64,28.18.99,3.57,2.67,6.93,4.89,9.9,9.87,13.21,21.06,17.97,34.91,16.97,4.54-13.7,3.6-26.58-5.22-38.27-1.93-2.56-4.37-4.72-7.14-6.34-12.26-7.16-26.57-10.73-43.09-10.43Z"/>
          <path class="cls-9" d="M276.12,102.81c-4.67-22.58-26.62-43.43-55.45-55.04"/>
          <path class="cls-9" d="M243.56,51.86c2.78,3.87,4.4,7.53,3.94,10.82"/>
          <path class="cls-9" d="M260.57,61.27c4.68,6.23,5.34,11.34,1.97,15.34"/>
          <path class="cls-9" d="M243.05,71.59c5.37-1.52,10.36-2.27,14.19-.62"/>
          <path class="cls-9" d="M251.44,87.46c8.76-.96,16.51-.89,20.42,3.12"/>
        </g>
      </g>
      <g>
        <path class="cls-5" d="M14.68,120.87c-2.79,4.12-5.19,8.21-7.16,12.26-10.06,20.66-9.07,40.37,7.16,58.8,41.67,5.11,85.06,6.7,130.03,5.03,45.54-.3,88.51-1.28,115.77-6.35,36.24-2.22,78.44-5.53,90.69-3.4,14.36,1.56,27.87,2.46,36.99,0,28.36-15.13,28.61-42.34,6.39-74.84-29.44-2.4-69.25-1.65-112.02,0-.01-8.54.47-16.39,3.66-20.43l2.68-3.52c.68-.9-.28-2.11-1.31-1.66h0c-.42.18-.9.09-1.22-.24l-2.92-3c-.66-.68-1.81-.25-1.86.7-.26,4.7-1.24,9.28-2.86,13.75-.63,1.72-1.48,3.36-2.57,4.83-6.64,8.92-15.36,13.73-26.41,13.91h-66.7c-7.9-1.13-12.34.29-15.94,2.33-63.5-1.89-126.9-3.76-152.39,1.82Z"/>
        <path class="cls-19" d="M393.47,113.27l-8.6-.54c-.73-.05-1.19.77-.78,1.38,14.95,22.34,18.16,43.96-1.13,59.33-.04.03-.09.07-.14.09-17.03,9.58-36.63,12.56-59.54,7.03-.05-.01-.1-.02-.15-.02-27.7-1.77-53.52-1.61-72.41,5.71-.35.14-.75.03-.99-.26-9.87-11.78-21.06-11.51-36.8-13.62-.07,0-.13-.01-.2,0l-63.16,6.05c-.59.06-.95.67-.73,1.22,2.68,6.57,2.01,2.96-.45,3.59-33.81,1.84-66.1,3.96-86.18,8.38-.09.02-.18.02-.27.02l-40.98-4.03c-.25-.02-.48-.15-.63-.35-7.54-9.98-12.13-21.36-15.01-33.53-.36-1.5-2.52-1.39-2.71.15-1.56,12.75.83,23.6,12.24,36.77.49.56,1.5,1.08,2.24,1.15,77.03,7.27,157.58,7.58,243.39-1.14,35.55-3.6,70.19-5.95,90.45-2.75.21.02.67.14.89.15l33.65-.28c.17,0,3.73-2.19,3.87-2.28,25.1-16.15,29.07-36.17,4.81-71.79-.15-.23-.41-.37-.68-.39Z"/>
        <ellipse class="cls-19" cx="38.31" cy="132.98" rx="30.79" ry="3.82"/>
        <g>
          <ellipse class="cls-19" cx="40.14" cy="150.26" rx="36.25" ry="5.2"/>
          <ellipse class="cls-19" cx="50.35" cy="163.61" rx="40.15" ry="5.2"/>
          <path class="cls-19" d="M255.12,167.09c0-1.81-25.13-3.28-56.13-3.28s-56.13,1.47-56.13,3.28,17.06,5.8,56.13,5.8c31,0,56.13-3.98,56.13-5.8Z"/>
          <ellipse class="cls-19" cx="99.18" cy="129.16" rx="21.55" ry="3.19"/>
          <ellipse class="cls-19" cx="177.79" cy="132.16" rx="24.3" ry="7.16"/>
          <ellipse class="cls-19" cx="333.22" cy="129.25" rx="62.47" ry="7.16"/>
          <ellipse class="cls-19" cx="294.93" cy="145.13" rx="90.55" ry="7.16"/>
          <path class="cls-19" d="M227.54,158.84c.26-3.86-23.46-12.19-52.4-14.16-28.94-1.97-52.14,3.16-52.4,7.02s22.99,8.59,51.93,10.56c28.94,1.97,52.62.44,52.88-3.42Z"/>
        </g>
        <g>
          <path class="cls-10" d="M67.51,133.39c-22.73-1.48-44.02-2.22-59.99-.26"/>
          <path class="cls-10" d="M6.94,150.55c23.05-.63,44.38-.31,62.17,1.94"/>
          <path class="cls-10" d="M12.71,163.7l44.85,1.89c9.2-3.43,18.73-3.92,28.64-.94"/>
          <path class="cls-10" d="M87.94,128.2c9,.79,18.29,1.16,28.02.87"/>
          <path class="cls-10" d="M161.57,129.73c13.47-.84,26.17-.94,34.92,2.8-9.78,2.39-19.59,3.97-29.42,4.28"/>
          <path class="cls-10" d="M138.84,148.9h20.26c8.64,1.98,18.64,3.02,29.65,3.39"/>
          <path class="cls-10" d="M144.71,156.9c6.57-.68,12.54-.49,16.86,2.14,12.05,1.15,22.92.28,32.12-3.46,7.33-1.78,15.74-1.3,24.54,0"/>
          <path class="cls-10" d="M212.49,145.9c71.43-2.63,99.24-3.39,153.97-.97"/>
          <path class="cls-10" d="M249.71,116.72c6.82,4.13,14.76,6.28,24.78,4.73,11.55-3.73,23.07-6.22,34.49-4.73"/>
          <path class="cls-10" d="M275.9,129.25c8.64-2.65,15.86-3.3,20.28,0,26.64-2,52.2-3.28,72.7-1.12l34.91.07"/>
          <line class="cls-10" x1="330.38" y1="160.92" x2="410.1" y2="158.59"/>
          <line class="cls-10" x1="149.72" y1="167.56" x2="249.71" y2="166.61"/>
        </g>
      </g>
      <path class="cls-2" d="M67.51,129.73c7.54.75,13.94,3.27,18.5,8.65l15.35,32.99-17.35-29.83c-7.21-3.3-13.35-6.99-16.5-11.81Z"/>
      <path class="cls-2" d="M126.3,135.13c6.5-4.85,12.73-7.78,18.41-6.73-3.95,4.08-9.56,7.23-16.14,9.84l-12.61,31.36,10.34-34.47Z"/>
      <path class="cls-4" d="M132.92,249.03l3.26,2.55c-5.78,6.62-13.1,13.2-20.69,17.85-.5.31-.64.97-.3,1.45,11.42,16.13,21.57,31.18,26.43,41.81-7.07,2.96-14.12,5.27-21.14,6.06h-12.43c-4.11-1.73-6.3-4.44-5.11-8.87.88-3.3,3.33-5.94,6.42-7.4,4.52-2.13,10-3.15,15.66-1.74.18.04.33-.14.24-.3l-16.7-30.79c-.23-.43-.13-.96.24-1.27l24.13-19.35Z"/>
      <g>
        <path class="cls-9" d="M143.72,243.87c32.24-21.73,62.52-3.61,65.78,30.48-32.65,19.76-66.49,16.48-68.91-26.14l3.13-4.34Z"/>
        <path class="cls-9" d="M143.71,264.74c14.49-4.36,22.7-13.72,22.41-29.83,5.75-.45,11.13-.29,15.57,1.41-2.22,19.61-10.94,34.44-27.71,43.32-4.37-3.78-7.76-8.79-10.27-14.9Z"/>
        <path class="cls-9" d="M196.38,245.26c-.46,14.84-5.06,28.03-13.38,39.73,6.05-1.46,11.72-3.03,14.8-5.35,4.16-6.35,7.51-12.63,8.46-18.68-2.56-6.29-5.7-11.75-9.89-15.7Z"/>
      </g>
      <g>
        <path class="cls-4" d="M143.72,243.87c32.24-21.73,62.52-3.61,65.78,30.48-32.65,19.76-66.49,16.48-68.91-26.14l3.13-4.34Z"/>
        <path class="cls-6" d="M143.71,264.74c14.49-4.36,22.7-13.72,22.41-29.83,5.75-.45,11.13-.29,15.57,1.41-2.22,19.61-10.94,34.44-27.71,43.32-4.37-3.78-7.76-8.79-10.27-14.9Z"/>
        <path class="cls-6" d="M196.38,245.26c-.46,14.84-5.06,28.03-13.38,39.73,6.05-1.46,11.72-3.03,14.8-5.35,4.16-6.35,7.51-12.63,8.46-18.68-2.56-6.29-5.7-11.75-9.89-15.7Z"/>
      </g>
      <path class="cls-11" d="M198.51,300.58c2.51-2.17,2.96-5.17,2.23-8.65-15.94-3.97-30.62-7.8-41.67-11.25-.63-.2-1.11-.72-1.27-1.36-2.81-11.12-5.86-21.44-9.38-30.28-1.99-4.99.2-8.04,3.35-5.32.24.2.55.61.71.88,6.36,10.8,9.9,20.75,10.66,30.28.06.8.63,1.46,1.42,1.62,12.73,2.51,26.02,4.47,39.83,5.95,3.33.36,6.51,1.84,8.65,4.42,3.3,3.96,3.87,9.56,1.04,17.2-1.43,4.23-3.29,7.33-5.47,9.58-1.12,1.15-2.6,1.89-4.18,2.16-6.39,1.06-11.9,1.13-15.42-1.04-.89-.54-1.42-1.53-1.32-2.57.47-4.97,2.8-9.29,10.82-11.62.91-.26,1.9-.5,2.96-.71"/>
      <path class="cls-4" d="M131,212.89c7.35-.43,15.15,1.11,23.27,3.96.8.28,1.7.07,2.28-.56l20.09-22.1c8.66.54,16.32-2,22.66-8.61,3.44-.67,4.42,1.48,3.53,5.8-.3,1.46-1.07,2.8-2.17,3.8-5.32,4.78-11.57,6.66-18.97,4.94l-20.81,23.5c-.48.55-1.22.8-1.94.66l-17.86-3.39-10.07-8Z"/>
      <path class="cls-4" d="M140.83,251.38c-15.59,3.62-25.85-3.34-31.06-20.35-.92-5.39-.88-11.02,0-16.88l15.19-2.22c8.89-.61,15.59,7.44,21.95,16.79,5.64,9.55,2.33,16.77-6.09,22.66Z"/>
      <path class="cls-3" d="M115.04,221.57c-10.15,6.72-22.66,11.2-36.93,14.01-.97.19-1.97-.14-2.63-.87-9.31-10.35-16.69-23.41-22.28-38.97-14.51,1.48-19.21-6.43-19.41-18.65-.09-3.14,1.4-4.15,4.27-4.2.5,0,.96.3,1.14.77,3.79,10.21,8.59,15.5,14.56,15.14,4.13.62,5.91,2.41,5.69,5.2-.03.36.02.73.18,1.05,7.35,14.78,14.8,30.16,20.35,34.73.65.54,1.55.67,2.33.34,10.69-4.41,20.99-7.81,31.08-10.69,1.47.08,1.79.96,1.65,2.14Z"/>
      <path class="cls-4" d="M81.37,213.37c-2.46-.28-4.33-2.33-4.72-4.77-1.37-8.57,2.76-18.72,9.53-28.08,6.53-10.63,16.83-14.13,29.76-12.62,5.14.6,9.98,2.77,13.75,6.32,8.23,7.74,9.64,16.76,6.4,26.26-1.84,5.41-5.66,9.97-10.68,12.69-9.67,5.24-21.38,6.19-33.49,4.26l3.13-10.11c.04-.13-.11-.24-.22-.17-4.62,3.16-9.28,6.69-13.45,6.22Z"/>
      <path class="cls-20" d="M119.6,187.14c0,8.15-3.59,14.38-9.35,14.38s-11.5-6.23-11.5-14.38,4.5-14.25,10.26-14.25,10.59,6.11,10.59,14.25Z"/>
      <path class="cls-14" d="M116.33,189.31c0,5.35-2.36,9.44-6.13,9.44s-7.53-4.09-7.53-9.44,2.95-9.35,6.72-9.35,6.94,4.01,6.94,9.35Z"/>
      <ellipse class="cls-6" cx="109.87" cy="190.61" rx="4.59" ry="5.77"/>
      <circle class="cls-18" cx="108.58" cy="186.52" r="2.18"/>
      <circle class="cls-18" cx="112.6" cy="194.8" r=".94"/>
      <path class="cls-11" d="M260.95,140.23c-5.24-3.88-10.96-5.52-17.33-4.15,4.6,3.28,9.35,5.35,14.19,6.53l21.23,23.99,1.63-.63-19.72-25.75Z"/>
      <path class="cls-11" d="M299.27,164.98l18.72-24.12c3.97-4.32,9.11-6.93,17.21-5.25-2.95,3.12-7.46,5.13-13.19,6.26l-21.98,24.75-.75-1.63Z"/>
      <path class="cls-11" d="M277.41,221.72l-20.46,6.09c-.91.27-1.89.01-2.53-.69-8.98-9.79-16.48-22.53-22.43-38.41-.12-.33-.48-.51-.82-.42-11.08,2.76-16.79-3.82-18.82-16.81-.06-.39-.08-.8-.03-1.2.41-3.48,1.64-5.1,3.61-5.02,1.55.06,2.8,1.28,3.18,2.78,2.2,8.83,7.26,12.83,14.17,13.23,3.69-.23,4.74,1.66,5.53,3.77,1.77,10.8,10.05,24.25,20.35,38.53,4.41-2.31,9.68-4.14,15.41-5.7l2.85,3.85Z"/>
      <path class="cls-11" d="M317.56,205.95l-.71,7.29c6.93.91,14.83,2.09,20.89,3.64.27.07.56,0,.76-.2,8.77-8.43,16.65-16.65,21.3-24.05,9.39,1.2,17.48.28,21.36-7.54.8-1.62.92-3.56.04-5.14-1.45-2.62-4.28-1.89-8.46,2.14-.35.34-.74.65-1.17.89-5.06,2.8-10.33,3.97-15.87,3.08l-20.21,23.25c-.21.25-.56.34-.87.24-5.63-1.87-11.3-3.3-17.06-3.58Z"/>
      <path class="cls-11" d="M310.49,243.19c-7.84,5.07-14.98,10.62-21.44,16.66-.96.9-1.46,2.25-1.12,3.52.11.41.16.84.44,1.13l16.59,29.29c-9.02-1.81-16.13-1.14-20.52,3.02-2.46,2.33-3.58,5.83-2.94,9.16s2.97,5.57,8.02,5.64c11.46.03,21.87-1.58,30.56-5.89.35-.18.49-.61.31-.96-6.72-13.09-15.09-26.89-25.67-41.63-.36-.5-.28-1.19.19-1.59l21.45-18.34h-5.89Z"/>
      <path class="cls-11" d="M319.63,243.64l9.03-11.68c33.18-14.26,55.76,3.19,59.5,35.13-28.4,16.08-55.59,14.87-65.27-9.59-1.58-3.99-2.69-8.6-3.27-13.86Z"/>
      <path class="cls-6" d="M345.18,227.39c-.65,16.09-8.79,25.42-22.18,30.02,3,6.25,6.09,10.89,10.39,13.9,16.01-9.01,26.59-22.1,26.74-43.02-5.29-1.02-10.36-1.5-14.96-.9Z"/>
      <path class="cls-6" d="M375.23,237.43c-.41,15.3-4.23,28.68-13.07,39.27,4.57-.96,9.39-2.4,14.4-4.23,3.89-5.59,6.78-11.66,8.83-18.11-2.39-6.56-5.65-12.32-10.17-16.93Z"/>
      <path class="cls-11" d="M332.1,237.43c-3.51-2.77-6.9-.74-4.9,3.56l9.19,30.56c.1.34.37.61.71.71,11.19,3.28,25.63,7.01,41.41,10.93.65.16,1.12.75,1.13,1.42.08,4.15-.26,7.89-3.44,8.88-5.76,2.57-9.18,6.14-9.61,11.02-.09.96.39,1.89,1.2,2.43,5.44,3.61,11.63,3.45,18.43.28.76-.35,1.43-.88,1.98-1.51,6.59-7.52,10.55-22.34-.94-30.03l-44.25-6.56c-.48-.07-.84-.46-.89-.94-.95-9.52-4.61-19.86-10.02-30.73Z"/>
      <path class="cls-11" d="M287.69,222.62l28.19-14.04c7.65,8.28,12.95,16.49,12.48,24.57-.07,1.26-.54,2.48-1.26,3.52-.03.05-.07.1-.1.15-3.71,5.32-10.11,8.08-16.52,7.15-11.67-1.69-19.3-8.76-22.79-21.34Z"/>
      <path class="cls-11" d="M262.15,193.85c2.18,10.44,4.02,21.29,12.41,24.01,1.94,3.34,3.94,6.13,6.06,7.92s5.34,2.18,7.9.85c2.35-1.22,4.4-2.74,5.88-4.82,11.89-1.89,21.29-7.17,26.63-17.94,6.75-12.15,3.11-24.4-12.26-36.1-13.67-6.57-26.22-6.43-37.44,1.67l-9.18,24.4Z"/>
      <path class="cls-21" d="M273.93,209.42c11.39,5.4,18.61-.09,25.34-4.5-.25,7.5-4.49,14.08-12.52,16.95-6.1-.4-10.46-6.1-12.82-12.44Z"/>
      <path class="cls-13" d="M278.44,217.29c5.6-4.34,11.39-5.4,17.48-2.06.1.06.39.13.18.39-1.34,1.72-2.86,3.18-5.54,4.55-1.32.82-2.61,1.82-3.82,1.69-4.75-.54-6.53-2.32-8.3-4.57Z"/>
      <ellipse class="cls-17" cx="307.09" cy="180.96" rx="7.83" ry="13.48" transform="translate(-44 242.49) rotate(-40.45)"/>
      <ellipse class="cls-24" cx="307.91" cy="182.19" rx="4.75" ry="7.44" transform="translate(-44.6 243.32) rotate(-40.45)"/>
      <path class="cls-6" d="M311.91,186.79c-1.69,1.44-4.36,1.07-5.98-.83-1.62-1.89-1.56-4.6.13-6.03,1.69-1.44,4.36-1.07,5.98.83,1.62,1.89,1.56,4.6-.13,6.03Z"/>
      <ellipse class="cls-16" cx="305.59" cy="180.88" rx="1.88" ry="1.32"/>
      <circle class="cls-23" cx="312.18" cy="185.86" r="1.02"/>
      <path class="cls-17" d="M267.15,196.96c-6.05-2.58-8.41-10.63-5.28-17.98s10.58-11.22,16.63-8.64l-11.34,26.61Z"/>
      <path class="cls-22" d="M267.69,191.93c-3.91-1.67-5.56-6.59-3.68-10.99s6.57-6.62,10.48-4.95l-6.8,15.95Z"/>
      <path class="cls-15" d="M268.91,189.64c-2.8-1.19-4.28-4-3.31-6.27.97-2.27,4.02-3.15,6.82-1.95l-3.51,8.23Z"/>
      <path class="cls-11" d="M278.69,169.22c-9.27,11.56-14.85,22.79-11.77,33.23.41,1.39,1.22,2.63,2.29,3.61,9.75,8.87,21.22,6.34,33.88-4.08l-1.38-1.57,2.86,3.19"/>
      <ellipse class="cls-18" cx="268.03" cy="180.68" rx="1.03" ry="1.16"/>
    </g>
  </g>
</svg>