<?xml version="1.0" encoding="UTF-8"?>
<svg id="Calque_2" xmlns="http://www.w3.org/2000/svg" viewBox="0 0 618.39 559.66">
  <defs>
    <style>
      .cls-1 {
        fill: #611818;
      }

      .cls-1, .cls-2, .cls-3, .cls-4, .cls-5, .cls-6, .cls-7, .cls-8 {
        stroke: #000;
        stroke-miterlimit: 10;
      }

      .cls-2 {
        fill: #f26d82;
      }

      .cls-3 {
        fill: #ffebb9;
      }

      .cls-4 {
        fill: #f9f9f9;
      }

      .cls-5 {
        fill: #fac04f;
      }

      .cls-6 {
        fill: none;
      }

      .cls-7 {
        fill: #593220;
      }

      .cls-8 {
        fill: #f59472;
      }

      .cls-9 {
        fill: #fbfbfb;
      }
    </style>
  </defs>
  <g id="Calque_1-2" data-name="Calque_1">
    <g>
      <path class="cls-5" d="M99.75,327.32c7.46,19.51,15.29,38.15,26.23,49.35,3.21,3.29,6.05,6.93,8.63,10.73,17,25.06,31.33,48.7,41.73,70.23l40.3,69.73c13.8,2.73,24.27-.61,27.15-17.72-3.57-18.02-6.87-35.68-8.57-51.16-1.15-2.51-2.46-4.78-4.62-5.77l-11.43-16.9-58.43-63.82-60.98-44.68Z"/>
      <path class="cls-5" d="M383.46,376.7c-20.04-5.06-30.69-17.17-39.32-29.76,19.82-23.34,65.36-12.19,112.42,1,3.72,1.04,7,3.27,9.32,6.36,8.66,11.52,17.08,21.67,24.57,26.67,12.16,6.52,18.61,15.17,16.58,26.97-.69,33.91-.5,65.66,4.64,85.34-6.62,16.53-39.58,30.29-47.31,21.23-8.09,1.75-15.11,1.55-17.25-7.52-7.93-57.34-25.38-104.71-63.65-130.3Z"/>
      <path class="cls-5" d="M467.67,172.24l33.31,79.12c22.77,17.48,49.47,25.06,85.71,8.68,29.07-22.62,36.14-56.27,28.11-97.51-8.43-35.8-25.48-64.71-54.13-84.32-24.24-21.22-46.81-41.78-52.05-55.52-5-15.51-11.8-26.98-26.81-20.18-3.6,1.63-6.26,4.81-7.32,8.61-2.54,9.07-1.44,20.43,7.75,36.9,16.02,23.18,33.79,43.61,55.17,58.3,26.96,31.99,57.6,63.1,41.23,105.49-3.9,10.1-12.07,18.12-22.52,20.96-11.92,3.24-23.17-1.09-33.43-16.51-1.59-2.39-3.23-4.76-4.97-7.05-14.17-18.54-28.77-36.02-50.06-36.96Z"/>
      <path class="cls-5" d="M43.49,208.75l23.15,48.62c10.03,14.38,17.7,29.95,23.81,46.3,2.63,11.29,10.06,25.33,19.18,40.35,13.11,19.5,29.45,27.35,48.3,33.2,7.55,31.1,13.78,65.87,16.97,101.61.46,5.19-.12,10.47-2,15.33-3.5,9.05-10.13,15.13-20.01,18.14-14.44,3.87-11.15,10.81-6.83,17.93-5.29,8.88-2.41,14.35,9.11,16.22,2.5,8.36,9.17,8.89,16.61,7.97,10.52,7.34,24.91,5.81,35.6-2.09,5.53-4.08,8.86-10.48,9.29-17.34.74-11.58,2.56-23.87,5.08-36.62,2.31-3.31.77-10.04-1.42-17.36l-1.14-17.07c-.5-25.33,4.74-54.86,11.67-85.64,26.5,4.75,77.33-13.68,136.58-40.12,4.81,26.84,23.95,55.89,47.48,85.62,10.14,29.19,2.75,46.02-4.33,63.06-4.44,12.22-12.58,17.03-24.52,14.22-11.79-1.9-18.84,5.42-25.35,13.81-5.35,8.57-1.62,13.94,5.98,17.93.18,6.78,4.83,9.3,12.16,9.27,3.55,5.99,9.55,5.02,15.91,3.01,7.31,13.33,26.43,1.28,44.05-7.55l23.92-99.2c1.04-4.31.88-8.83-.44-13.06-5.35-17.25-6.31-35.9-5.44-55.13,1.49-24.02,15.16-46.15,33.56-67.55,29.11-48.91,18.57-86.46-4.74-119.11-27.04-28.67-58.83-36.13-93.39-31.3l-107.3,21.36c-62.7,13.53-102.99,2.69-131.14-21.36l-110.35,56.57,39.68,20.39,9.27,4.44,26.99,77c10.32,23.2,30.46,38.6,37.62,61.59.51,1.63-.24,1.53-.24,3.35,0,2.48-1.87-3.06-6.86-3.36-26.29-11.31-38.4-23.98-47.46-39.11l-21.42-51.18"/>
      <path class="cls-6" d="M182.58,530.64c-10.81,5.37-14.41,13.29-10.81,23.77"/>
      <path class="cls-6" d="M166.47,528.22c-7.99,6.08-11.76,12.15-11.31,18.23"/>
      <path class="cls-6" d="M160.8,520.68c-5.63,1.94-11.06,4.23-14.74,9.55"/>
      <path class="cls-6" d="M410.72,517.4c-2.17,3.09-4.62,5.28-7.53,5.94-4.29.97-8.05,3.62-9.87,7.63-2.46,5.4-2.74,10.28,1.43,14.12"/>
      <path class="cls-6" d="M395.38,514.54c-11.8,3.66-19.41,10.99-16.54,27.54"/>
      <path class="cls-6" d="M382.73,509.17c-11.01,3.09-16.36,10.97-16.05,23.63"/>
      <path class="cls-6" d="M477.82,483.48c-12.45,6.37-22.47,13.94-13.46,31.03"/>
      <line class="cls-6" x1="460.89" y1="483.48" x2="450.53" y2="488.91"/>
      <path class="cls-6" d="M230.84,378.29l2.98-11.47c.78-3.02,1.62-6.04,2.71-8.97,2.28-6.13,1.84-12.51-.07-19.04-1.58-5.4-4.15-10.48-7.61-14.92-8.17-10.5-16.66-31.18-25.11-50.55"/>
      <path class="cls-6" d="M367.42,338.17c-2.42-25.17,2.72-42.41,9.61-57.81"/>
      <path class="cls-3" d="M238.08,343.3c50.91-6.93,98.97-15.35,129.81-32.72-.58,10.85-1.06,21.34-.47,27.58-60.47,29.21-106.27,42.87-136.58,40.12,3.88-12.72,6.75-24.71,7.23-34.98Z"/>
      <path class="cls-5" d="M131.71,101.37c10.95-4.59,23.36-10.53,27.4-8.69,8.85,3.26,8.72,13.9,0,31.62-5.98,4.11-11.66,7.17-15.28,3.16l-12.12-26.08Z"/>
      <path class="cls-5" d="M57.67,216.77c-14.58-7.93-29.21-15.84-33.99-27.93-6.69-11.98-10.55-26.16-3.95-48.48C7.46,128.24.41,115.1.5,100.58c8.96-2.97,19.13-4.37,35.83,2.63,27.72-25.76,76.93-29.51,98.01-5.07,9.48,16.51,17.38,31.84,19.76,43.01-.72,16.81-2.95,31.63-7.64,43.21,5.89,11.72,4.18,21.04-9.48,26.61-4.48,13.83-10.6,23.74-21.34,22.66-18.64,3.73-38.03-2.88-57.96-16.86Z"/>
      <path class="cls-3" d="M69.79,188.84c6.41-8,12.94-15.84,24.5-16.86l39.52,4.48c6.07,1.94,10.97,4.32,12.65,7.9,5.88,11.64,4.23,20.98-9.48,26.61-3.69,12.24-10.24,22.98-21.34,22.66-13.03,1.65-25.93,1.53-38.33-5.51l-19.63-11.36c-.02-10.74,2.33-20.64,12.12-27.93Z"/>
      <path class="cls-2" d="M86.23,213.27c8.87-.65,17.76-1.3,23.47-3.58,4.48,2.72,7.38,6.81,6.87,13.88-13.48,1.15-25.67.55-30.34-10.3Z"/>
      <path class="cls-1" d="M125.59,210.7c-1.4,6.56-4.66,10.49-9.02,12.88-.36-6.35-1.82-11.72-6.87-13.88l5.15-4.15c2.56,3.51,6.01,5.44,10.73,5.15Z"/>
      <path class="cls-1" d="M100.57,186.63c-4.1-7.59-5.02-14.09,11.67-14.64.19,0,.38-.02.57-.04,8.97-1.02,15.9-.18,17.88,5.14.88,2.35.37,4.99-1.03,7.07-3.56,5.27-8.11,8.63-14,9.46-1.2.17-2.42.03-3.57-.35-3.42-1.11-6.57-2.31-8.87-3.75-1.12-.71-2.02-1.72-2.65-2.89Z"/>
      <ellipse class="cls-4" cx="69.33" cy="147.25" rx="16.9" ry="15.3"/>
      <circle cx="69.33" cy="151.1" r="10.97"/>
      <circle class="cls-9" cx="67.39" cy="148.18" r="3.78"/>
      <circle class="cls-9" cx="72.82" cy="156.26" r="1.65"/>
      <ellipse class="cls-4" cx="138.14" cy="143.51" rx="12.55" ry="11.56"/>
      <circle cx="136.08" cy="144.41" r="8.74"/>
      <circle class="cls-9" cx="133.33" cy="141.62" r="3.68"/>
      <circle class="cls-9" cx="138.49" cy="148.71" r="1.48"/>
      <path class="cls-6" d="M71.88,186.26c2.07-6.9,6.65-11.05,16.68-16.01.76-5.24.27-12.04-2.32-21.46"/>
      <path class="cls-6" d="M130.69,177.09c-3.86-12.31-6.92-27.88-4.74-30.83"/>
      <path class="cls-6" d="M141.71,176.78l-1.93-1.96c-2.44-2.47-4.34-5.43-5.57-8.68l-5.79-15.32"/>
      <path class="cls-8" d="M21.91,137.93l7.48-18.27c-9.15-10.41-17.68-18.11-23.84-15.56.14,11.75,4.11,23.16,16.37,33.83Z"/>
      <circle class="cls-7" cx="54.32" cy="104.86" r="5.97"/>
      <ellipse class="cls-7" cx="67.89" cy="116.73" rx="7.6" ry="6.63" transform="translate(-49.27 49.58) rotate(-30)"/>
      <ellipse class="cls-7" cx="87.45" cy="99.61" rx="7.97" ry="5.92"/>
      <ellipse class="cls-7" cx="117.93" cy="97.72" rx="4.04" ry="6.29" transform="translate(-20.37 163.52) rotate(-65.09)"/>
      <ellipse class="cls-7" cx="124.93" cy="115.34" rx="4.87" ry="7.47" transform="translate(-37.42 165.86) rotate(-60)"/>
      <ellipse class="cls-7" cx="99.95" cy="119.41" rx="5.7" ry="5.26"/>
      <ellipse class="cls-7" cx="50.46" cy="167.49" rx="6.36" ry="7.73"/>
      <ellipse class="cls-7" cx="31.25" cy="169.54" rx="5.09" ry="7.27" transform="translate(-67.87 28.49) rotate(-24.66)"/>
      <ellipse class="cls-7" cx="41.38" cy="188.37" rx="4.68" ry="6.19" transform="translate(-130.18 100.27) rotate(-50.43)"/>
      <ellipse class="cls-7" cx="86.23" cy="250.25" rx="9.72" ry="7.58"/>
      <circle class="cls-7" cx="110.82" cy="280.34" r="9.39"/>
      <ellipse class="cls-7" cx="110.61" cy="316.19" rx="9.61" ry="8.32"/>
      <ellipse class="cls-7" cx="133.92" cy="252.81" rx="9.61" ry="12.64" transform="translate(-142.75 180.01) rotate(-47.35)"/>
      <ellipse class="cls-7" cx="144.85" cy="311.71" rx="9.24" ry="11.1" transform="translate(-168.42 170.26) rotate(-40.78)"/>
      <ellipse class="cls-7" cx="180.7" cy="341.9" rx="11.16" ry="12.23"/>
      <ellipse class="cls-7" cx="198.13" cy="383.87" rx="7.93" ry="11.7" transform="translate(-213.41 252.53) rotate(-45)"/>
      <circle class="cls-7" cx="194.58" cy="425.42" r="9.17"/>
      <path class="cls-7" d="M172.92,450.76c3.36-2.17,16.3-4.96,16.3,11.44,0,6.36-6.63,12-12.99,12"/>
      <path class="cls-7" d="M219.18,463.93c-2.63,0-9.72-6.26-9.72-11.17s7.93-11.07,10.57-11.07"/>
      <path class="cls-7" d="M220.91,422.6c-2.42-.58-9.17-11.06-7.79-16.87s10.23-9.69,12.65-9.11"/>
      <path class="cls-7" d="M163.95,399.49c3.19,0,12.32-1.47,14.89,12.56,1.25,6.82-6.16,15.71-9.35,15.71"/>
      <ellipse class="cls-7" cx="219.36" cy="354.99" rx="14.21" ry="10.73"/>
      <circle class="cls-7" cx="199.77" cy="313.47" r="9.66"/>
      <ellipse class="cls-7" cx="165.85" cy="288.63" rx="9.11" ry="10.64" transform="translate(-155.52 201.81) rotate(-45)"/>
      <ellipse class="cls-7" cx="167.17" cy="250.25" rx="7.43" ry="12.39" transform="translate(-86.99 89.09) rotate(-23.88)"/>
      <ellipse class="cls-7" cx="184.9" cy="220.79" rx="9.79" ry="11.09"/>
      <ellipse class="cls-7" cx="227.81" cy="226.67" rx="13.23" ry="10.34"/>
      <ellipse class="cls-7" cx="209.43" cy="250.25" rx="7.17" ry="10.71" transform="translate(-116.52 234.73) rotate(-47.35)"/>
      <ellipse class="cls-7" cx="233.37" cy="292.27" rx="7.66" ry="10.34"/>
      <ellipse class="cls-7" cx="257.38" cy="325.81" rx="8.08" ry="10.9" transform="translate(-153.47 385.81) rotate(-60)"/>
      <circle class="cls-7" cx="309.09" cy="317.59" r="9.73"/>
      <ellipse class="cls-7" cx="267.35" cy="296.14" rx="8.44" ry="11.73"/>
      <ellipse class="cls-7" cx="254.79" cy="261.34" rx="10.06" ry="11.09"/>
      <ellipse class="cls-7" cx="259.69" cy="200.86" rx="11.61" ry="13.7"/>
      <ellipse class="cls-7" cx="281.35" cy="232.28" rx="12.54" ry="13.89"/>
      <ellipse class="cls-7" cx="298.02" cy="194.68" rx="11.08" ry="9.11"/>
      <ellipse class="cls-7" cx="321.25" cy="223.04" rx="12.16" ry="13.98"/>
      <ellipse class="cls-7" cx="337.82" cy="255.11" rx="7.55" ry="8.93"/>
      <ellipse class="cls-7" cx="352.17" cy="291.85" rx="11.28" ry="13.56"/>
      <ellipse class="cls-7" cx="351.46" cy="199.59" rx="7.33" ry="12.44"/>
      <ellipse class="cls-7" cx="390.94" cy="193.3" rx="8.67" ry="9.79"/>
      <ellipse class="cls-7" cx="424.35" cy="211.95" rx="8.81" ry="11.09"/>
      <ellipse class="cls-7" cx="459.65" cy="185.57" rx="9.65" ry="8.81"/>
      <ellipse class="cls-7" cx="477.92" cy="222.16" rx="8.63" ry="10.12"/>
      <ellipse class="cls-7" cx="458.77" cy="255.23" rx="10.52" ry="11.6"/>
      <ellipse class="cls-7" cx="421.97" cy="258.88" rx="11.18" ry="10.22"/>
      <ellipse class="cls-7" cx="401" cy="294.35" rx="12.02" ry="9.94"/>
      <ellipse class="cls-7" cx="380.81" cy="240.95" rx="12.92" ry="14.28"/>
      <circle class="cls-7" cx="444.83" cy="297.24" r="9.72"/>
      <circle class="cls-7" cx="485.68" cy="277.49" r="12.27"/>
      <ellipse class="cls-7" cx="455.08" cy="327.36" rx="11.3" ry="9.76"/>
      <ellipse class="cls-7" cx="429.72" cy="340.29" rx="7.74" ry="10.18"/>
      <ellipse class="cls-7" cx="388.77" cy="328.94" rx="7.96" ry="11.35"/>
      <ellipse class="cls-7" cx="415.95" cy="382.01" rx="10.43" ry="14.55" transform="translate(-96.44 144.51) rotate(-17.7)"/>
      <circle class="cls-7" cx="471.95" cy="385.63" r="9.2"/>
      <ellipse class="cls-7" cx="468.72" cy="416.02" rx="7.83" ry="9.37"/>
      <path class="cls-7" d="M405.82,412.03c4.07-2.7,15.45-.68,15.45,5.3s1.89,13.89-4.09,13.89"/>
      <circle class="cls-7" cx="176.68" cy="186.28" r="9.51"/>
      <path class="cls-7" d="M226.8,179.27c0,4.67-6.07,13.85-13.51,14.42-15.78,1.21-13.51-13.5-13.51-18.18"/>
      <path class="cls-7" d="M355.58,159.49c.63,2.87-2.41,17.05-12.72,18.71-11.43,1.84-19.65-9.28-20.28-12.15"/>
      <path class="cls-7" d="M433.16,153.03c0,5.63-5.61,15.92-14.88,15.92-20.29,0-16.7-12.14-16.7-17.77"/>
      <path class="cls-7" d="M500.81,210.11c3.03,0,13.98,5.69,13.98,14.65s-3.75,16.43-6.78,16.43"/>
      <ellipse class="cls-7" cx="547.1" cy="246.35" rx="10.77" ry="10.08"/>
      <ellipse class="cls-7" cx="594.69" cy="209.83" rx="8.06" ry="10.63"/>
      <ellipse class="cls-7" cx="576.01" cy="122.91" rx="10.63" ry="15.14"/>
      <path class="cls-7" d="M581.3,95.98c-1.58,2.36-11.68,4.61-16.84,1.14-5.16-3.47-5.38-16.55-3.79-18.91"/>
      <path class="cls-7" d="M617.89,194.37c-3.75,0-13.57-8.23-13.57-17.61s6.07-17,9.81-17"/>
      <path class="cls-7" d="M539.87,72.59l1.29,2.62c.31.63,1.21.63,1.52,0l4.48-8.98,8.25,7.34-8.11,18.51-2.52-5.25c-.3-.63-1.2-.64-1.52-.02-3.39,6.59-8.13,11.32-15.75,12.08l-11.66-10.35c10.1-3.22,17.74-8.46,22.54-16.03.36-.57,1.19-.54,1.49.06Z"/>
      <path class="cls-7" d="M523,63.58v3.51c4.89-4.36,9.07-8.83,10.22-13.8l-9.24-9.34-2.96,3.55c-.71.85-1.86,1.21-2.93.9h0c-.93-.27-1.93-.03-2.66.61-7.88,6.99-16.02,11.68-24.8,10.65l9.12,11.51c8.03-1.53,15.47-3.8,20.77-8.66.95-.87,2.48-.23,2.48,1.06Z"/>
      <path class="cls-7" d="M506.86,36.85c2.59,4.85,5.86,3.48,8.34-3.14l-6.58-11.02-3.16,1.96c-.85.53-1.91.57-2.79.11h0c-.88-.45-1.92-.41-2.77.1-8.43,5.06-16.59,8.48-23.85,6.37l4.88,14.36c9.67.7,18.02-1.86,24.53-8.94.41-.44,1.13-.32,1.41.21Z"/>
      <path class="cls-3" d="M43.94,209.7l48.86,24.22c9.04,26.97,18.36,53.49,27.98,79.56,20.95,26.27,36.34,48.96,37,62.16.5.84-.32,1.85-1.24,1.52-25.26-8.98-45.19-24.38-56.79-49.84l-16.12-40.3c-14.6-23.83-27.69-49.82-39.7-77.32Z"/>
      <path class="cls-6" d="M69.33,203.24c5.15,15.07,39.39,9.42,45.52,2.31,4.83,3.94,11.07,6.69,22.12,5.43"/>
      <path class="cls-6" d="M114.85,205.55c.49-3.85,0-6.36-1.46-7.54"/>
    </g>
  </g>
</svg>