<?xml version="1.0" encoding="UTF-8"?>
<svg id="Calque_2" xmlns="http://www.w3.org/2000/svg" viewBox="0 0 379.03 369.79">
  <defs>
    <style>
      .cls-1 {
        fill: #d57f39;
      }

      .cls-1, .cls-2, .cls-3, .cls-4, .cls-5, .cls-6 {
        stroke: #000;
        stroke-miterlimit: 10;
      }

      .cls-2 {
        fill: #b88a66;
      }

      .cls-3 {
        fill: #fff;
      }

      .cls-4 {
        fill: #7f4f36;
      }

      .cls-6 {
        fill: #5a3d31;
      }
    </style>
  </defs>
  <g id="Calque_1-2" data-name="Calque_1">
    <g>
      <path class="cls-2" d="M3.49,273.32c16.45-4.15,37.06-3.44,70.84,12.66l17.8,25.5c-49.71-4.37-85.21-17.12-91.44-33.76-.69-1.85.55-3.84,2.8-4.41Z"/>
      <path class="cls-2" d="M19.09,329.69c12.2-13.87,29.12-24.07,66.62-18.2l19.1,14.97c-30.44,16-59.9,25.73-85.1,7.89-1.63-1.15-1.88-3.22-.61-4.66Z"/>
      <path class="cls-6" d="M75.83,150.88v154.87c15.56,24.72,31.86,35.08,48.51,38.72,45.49,3.77,92.31,8.35,117.93,0l57.52,1.94c5.6.19,11.17-1.23,15.92-4.21,20.5-12.85,35.97-28.96,37.37-54.25l-11.57-109.47-265.68-27.59Z"/>
      <path class="cls-2" d="M62.5,224.78c-10.42-15.46-21.62-28.27-35.27-32.79-7.04,34.59-2.54,67.27,38.11,93.99l-2.84-61.21Z"/>
      <path class="cls-2" d="M122.77,202.19c-18.24,45.89-21.29,87.7,2.44,122.24,2.93,4.27,6.07,9.01,10.81,11.11,42.8,18.98,92.17,19.68,141.73,1.2,13.22-4.93,23.42-15.53,27.98-28.88,11.36-33.28,10.95-69.78-1.89-109.68-57.68-45.8-117.23-58.66-181.07,4.01Z"/>
      <path class="cls-6" d="M87.06,73.22l-17.85,128.6c51.24,5.11,96.07-2.88,128.72-35.7h28.26c33.82,26,68.18,37.29,103.14,32.06l30.24-38.74c-11.02-30.46-20.71-60.78-25.87-90.59,6.27-10.67,9.09-21.78,6.54-33.58l-8.96,7.58c10.56-10.38,17.51-20.97,16.55-31.99-18.27,12.72-37.15,23.54-56.82,31.99-55.42-11.32-107.62-14.52-153.25-1.17-24.32-7.99-44.83-20.67-59.54-40.53-3.46,14.54-.32,28.75,7.79,42.71l-7.53-7.16c-2.24,12.22-.34,24.4,8.57,36.52Z"/>
      <g>
        <ellipse class="cls-3" cx="155.82" cy="103.68" rx="55.89" ry="54.72"/>
        <path class="cls-5" d="M160.07,141.66c0,9.82-5.79,16.15-12.94,16.15s-12.94-6.32-12.94-16.15,5.79-17.79,12.94-17.79,12.94,7.96,12.94,17.79Z"/>
        <ellipse class="cls-3" cx="140.3" cy="134.74" rx="5.18" ry="3.06" transform="translate(-15.69 250.94) rotate(-80.52)"/>
      </g>
      <g>
        <ellipse class="cls-3" cx="272.4" cy="106.09" rx="55.89" ry="54.72"/>
        <path class="cls-5" d="M276.64,144.07c0,9.82-5.79,16.08-12.94,16.08s-12.94-6.26-12.94-16.08,5.79-17.79,12.94-17.79,12.94,7.96,12.94,17.79Z"/>
        <ellipse class="cls-3" cx="258.23" cy="134.33" rx="4.04" ry="3.41" transform="translate(44.97 332.43) rotate(-70.37)"/>
      </g>
      <path class="cls-1" d="M199.4,140.25c8.9-9.7,17.8-9.49,26.7.64,1.68,1.92,2.6,4.41,2.57,6.96-.16,14.81-4.35,27.72-14.27,34.34-.7.47-1.65.36-2.2-.28-8.67-10.03-13.81-21.12-15.5-32.85-.46-3.19.51-6.43,2.69-8.8Z"/>
      <path class="cls-4" d="M77.96,320.68c27.71-43.98,36.2-97.15.28-171.59-23.79,36.31-34.86,74.91-22.23,109.3.34.93,1.7.83,1.9-.14l3.29-16c-4.07,26.96.86,45.43,9.5,60.39.46.8,1.67.59,1.83-.32l3.87-21.86c-1.5,15.42-2.61,30.25-.24,39.94.21.84,1.33,1.01,1.79.28Z"/>
      <path class="cls-4" d="M348.76,323.25c-29.4-43.98-34.88-110.18,4.32-175.75,25.97,35.34,31.92,89.13,18.52,123.52-.36.93-1.81.83-2.02-.14l-3.49-16c4.32,26.96-.32,42.25-9.49,57.22-.49.8-1.78.59-1.95-.32l-2.51-31.32c1.6,15.42,1.04,32.82-1.49,42.51-.22.84-1.42,1.01-1.9.28Z"/>
      <g>
        <path class="cls-1" d="M141.94,351.17c-4.95,10.13-12.87,16.43-17.69,14.08s-4.72-12.48.23-22.61c.38-.78.78-1.53,1.19-2.26,4.96-8.79,12.05-13.99,16.5-11.82,4.82,2.36,4.72,12.48-.23,22.61Z"/>
        <ellipse class="cls-1" cx="153.83" cy="349.04" rx="19.89" ry="10.66" transform="translate(-221.62 416.37) rotate(-76.38)"/>
        <ellipse class="cls-1" cx="175.21" cy="348.82" rx="19.89" ry="9.72" transform="translate(-194.28 474.71) rotate(-82.14)"/>
      </g>
      <ellipse class="cls-1" cx="249.86" cy="349.38" rx="18.38" ry="10.97" transform="translate(-118.23 570.75) rotate(-85.45)"/>
      <ellipse class="cls-1" cx="289.61" cy="350.96" rx="18.38" ry="10.02" transform="translate(-83.2 611.83) rotate(-85.45)"/>
      <ellipse class="cls-1" cx="270.42" cy="350.88" rx="18.38" ry="9.12" transform="translate(-100.8 592.63) rotate(-85.45)"/>
    </g>
  </g>
</svg>