<?xml version="1.0" encoding="UTF-8"?>
<svg id="Calque_2" data-name="Calque 2" xmlns="http://www.w3.org/2000/svg" viewBox="0 0 227.85 265.63">
  <defs>
    <style>
      .cls-1, .cls-2 {
        fill: #3c150e;
      }

      .cls-3 {
        fill: #401710;
      }

      .cls-2 {
        stroke: #3a1610;
      }

      .cls-2, .cls-4, .cls-5, .cls-6, .cls-7, .cls-8 {
        stroke-miterlimit: 10;
      }

      .cls-4 {
        fill: #ee8248;
      }

      .cls-4, .cls-5, .cls-6, .cls-7, .cls-8 {
        stroke: #1d1d1b;
      }

      .cls-9 {
        fill: #3d150e;
      }

      .cls-5 {
        fill: #f5a9a2;
      }

      .cls-10 {
        fill: #3c160e;
      }

      .cls-6 {
        fill: none;
      }

      .cls-11 {
        fill: #e56c37;
      }

      .cls-12 {
        fill: #ed9a74;
      }

      .cls-7 {
        fill: #fef3ed;
      }

      .cls-13 {
        fill: #907672;
      }

      .cls-8 {
        fill: #ed8146;
      }
    </style>
  </defs>
  <g id="Calque_1-2" data-name="Calque 1">
    <g>
      <path class="cls-4" d="M124.72,170.75l-14.16,87.25c-31.25-4.4-52.4-41.55-50.17-108.7-9.78,26.44-42.22,23.07-55.85-6.93-5.63-12.39-5.26-26.67.37-39.07,14.44-31.77,41.94-46.66,79.26-24.98,5.93,3.45,11.09,8.08,15.3,13.5,17.59,22.66,24.93,51.01,25.25,78.92Z"/>
      <path class="cls-8" d="M193.15,185.72c12.89,5.15,24.29,16.47,24.39,32.37.04,6.61-2.69,12.7-5.75,18.56-8.1,15.52-20.33,19.05-37.7,17.93l19.06-68.87Z"/>
      <path class="cls-10" d="M170.67,255.8l42.13,2.07c2.13.1,4.27-.19,6.25-.98,3.94-1.59,2.2-3.18-5.21-4.77-1.05-.23-2.13-.37-3.21-.44-18.99-1.13-35.3-1.08-39.97,4.12Z"/>
      <path class="cls-10" d="M134.01,263.54l42.13,2.07c2.13.1,4.27-.19,6.25-.98,3.94-1.59,2.2-3.18-5.21-4.77-1.05-.23-2.13-.37-3.21-.44-18.99-1.13-35.3-1.08-39.97,4.12Z"/>
      <path class="cls-7" d="M154.16,142.43c-5,24.79-11.1,45.19-20.15,53.97l17.53,60.01c9.48,4.66,21.64.82,34.87-6.44,3.4-1.86,6.38-4.42,8.68-7.54,9.79-13.28,15.21-31.14-6.51-77.44l-7.65-26.98c-10.65.91-21.28,1.83-26.78,4.43Z"/>
      <path class="cls-8" d="M193.64,137.87c18.93,19.9,28.22,36.12,10.72,42.11-1.93.66-3.96,1.01-6,1.16-10.73.77-18.88,2.09-19.15,5.12-.84,6.71-7.21,6.35-6.5-3.82.24-3.43,1.29-6.76,3.02-9.73,2.69-4.63,6.53-7.78,12.86-7.72l-7.65-26.98h0c3.4-3.7,9.23-3.77,12.7-.13Z"/>
      <path class="cls-4" d="M140.9,24.23c13.65-4.84,32.21,12.84,37.63,32.31l-32.88-3.69c.4-12.04.87-22.1-4.75-28.62Z"/>
      <path class="cls-4" d="M117.64,68.51c18.43-19.96,42.58-23.61,67.47-8.73,2.7,1.61,5.25,3.44,7.64,5.47,12.63,10.71,20.52,23.65,22.3,39.47-39.33,19.47-76.68,31.82-107.6,21.06-3.51-9.7-4.61-19.27-3.44-28.71,1.33-10.73,6.3-20.61,13.63-28.55Z"/>
      <path class="cls-7" d="M107.73,125.81c-.12-.01-.2.11-.14.21,8.07,14.05,27.64,20.79,71.43,12.14,21.93-4.61,36.55-14.03,36.04-33.44-10.69,3.33-20.11,4.78-26.02.96-1.32-.85-2.63-1.73-4.02-2.46-13.33-6.95-24.64-8.29-38.9,4.31-1.9,1.68-3.53,3.65-5.51,5.24-10.89,8.81-21.82,14.34-32.87,13.03Z"/>
      <path class="cls-4" d="M134.81,141.41c-6.88,15.64-10.89,23.64-20.16,36.37-2.82,3.87-5.38,7.93-7.58,12.19-20.31,39.37-19.28,64.91,9.87,72.25,57.14,15.93,60.8-49.86,17.06-65.83,5.41-5.13,8.66-11.67,10.84-18.9,11.94,1.17,18.84-5.83,16.85-27.19.03-5.39.84-10.31,3.32-14.18.61-.95.88-2.11.68-3.23-1.03-5.83-11.58-2.51-14.51,8.6l-16.37-.09Z"/>
      <path class="cls-4" d="M105.53,34.16c3.41,5.74,7.57,10.89,14.93,13.5,1.4.5,2.75,1.16,4.05,1.89,4.08,2.32,6.91,3.58,7.53,7.27l-10.1,7.65c-10.56-8.78-16.8-18.68-16.41-30.32Z"/>
      <path class="cls-5" d="M110.84,76.43l11.09-11.95c-9.24-7.99-16.57-16.99-16.41-29.97,0-.12-.14-.18-.22-.09-7.14,8.3-9.12,19.88,5.54,42.01Z"/>
      <path class="cls-1" d="M166.36,107.9c2.55-1.45,4.44-3.18,5.56-5.25.24-.44-.03-1.01-.53-1.07-4.09-.49-8.71.34-12.19,2.06-.52.26-.54.99-.04,1.28,2.26,1.31,4.63,2.37,7.19,2.98Z"/>
      <path class="cls-12" d="M124.73,83.77c3.63-1.67,7.82-1.5,12.77,1.17,4.51,2.43,7.52,6.85,8.17,11.93,1.22,9.46-3.89,13.67-13.26,14.33-12.03-.98-15.81-7.26-15.06-16.44.38-4.7,3.1-9.02,7.38-10.99Z"/>
      <path class="cls-12" d="M196.99,79.46c4.65,5.21,3.44,11.58-1.9,16.66-2.72,2.59-6.33,4.16-10.08,4.25-4.92.12-8-1.98-8.66-6.98-1.4-7.46.07-12.34,3.59-15.39,5.01-4.35,12.64-3.49,17.06,1.46Z"/>
      <path class="cls-9" d="M122.57,93.39c1.54,8.41,7.81,11.59,18.09,10.32,0-12.09-6.59-21.03-18.09-10.32Z"/>
      <path class="cls-13" d="M129.15,91.43c2.74-1.25,5.03-1.19,6.19,2.16-2.86.69-5.19.43-6.19-2.16Z"/>
      <path class="cls-9" d="M180.56,95.36c8.53.42,13.59-3.07,14.55-11.21-9.66-3.78-15.7-1.91-14.55,11.21Z"/>
      <path class="cls-13" d="M182.59,87.78c3.51,0,5.59-1.18,5.55-4.11-3.02.38-5.33,1.36-5.55,4.11Z"/>
      <ellipse class="cls-11" cx="125.39" cy="115.31" rx="5.09" ry="3.14" transform="translate(-22.14 30.14) rotate(-12.6)"/>
      <ellipse class="cls-11" cx="200.94" cy="101.85" rx="6.04" ry="3.76" transform="translate(-9.4 21.18) rotate(-5.9)"/>
      <path class="cls-1" d="M162.48,121.81c2.04,2.69,4,2.63,5.82-1.25.27-.58.37-1.24.27-1.87l-1.94-8.78-4.31,8.4c-.64,1.1-.6,2.49.17,3.5Z"/>
      <line class="cls-2" x1="166.91" y1="105.4" x2="166.41" y2="113.43"/>
      <ellipse class="cls-9" cx="121.93" cy="77.88" rx="5.51" ry="2.55" transform="translate(-22.61 71.4) rotate(-30)"/>
      <ellipse class="cls-9" cx="183.39" cy="68.96" rx="2.55" ry="5.51" transform="translate(87.26 239.69) rotate(-81.23)"/>
      <path class="cls-6" d="M145.85,158.44c2.94-5.62,5.16-11.25,5.34-16.94"/>
      <path class="cls-6" d="M144.85,177.5c-7.13-1.04-12.53-6.37-15.41-17.91"/>
      <path class="cls-6" d="M62.61,98.01c4.95,18.68,5.15,36.03-2.22,51.29"/>
      <g>
        <path class="cls-3" d="M224.5,25.58c4.59,4.91,4.36,9.13-.08,12.77-1.05.86-2.32,1.38-3.64,1.71-2.02.5-3.75,1.63-5.3,3.16-.8.79-1.41,1.76-1.82,2.81-.67,1.71-1.21,2.9-2.86,1.68-.23-.17-.45-.55-.46-.84-.08-2.44.36-4.67,1.82-6.52,1.12-1.42,2.78-2.29,4.54-2.71,9.54-2.29,8.64-10.35-3.36-11.24-3.42-.8-.12-4.57,6.96-3.17,1.61.32,3.08,1.16,4.2,2.36Z"/>
        <circle class="cls-3" cx="209.94" cy="52.53" r="1.78"/>
      </g>
      <g>
        <path class="cls-3" d="M196.92,1.19c6.46,3.73,7.58,8.3,4.04,13.6-.84,1.25-2.02,2.22-3.32,2.99-1.99,1.18-3.46,2.95-4.62,5.07-.6,1.1-.93,2.33-1.03,3.57-.16,2.03-.35,3.48-2.5,2.71-.3-.11-.65-.44-.75-.74-.87-2.56-1.13-5.08-.17-7.52.73-1.87,2.21-3.33,3.95-4.35,9.4-5.52,5.84-13.79-7.2-10.86-3.89.26-1.61-4.82,6.38-5.62,1.81-.18,3.65.24,5.23,1.15Z"/>
        <circle class="cls-3" cx="190.14" cy="34.53" r="1.98"/>
      </g>
    </g>
  </g>
</svg>