<?xml version="1.0" encoding="UTF-8"?>
<svg id="Calque_2" xmlns="http://www.w3.org/2000/svg" viewBox="0 0 393.49 276.85">
  <defs>
    <style>
      .cls-1 {
        fill: #5c9202;
      }

      .cls-2 {
        fill: #78ae02;
      }

      .cls-3 {
        fill: #3e7401;
      }

      .cls-4 {
        fill: #5c9200;
      }

      .cls-5 {
        fill: #abcf03;
      }

      .cls-6 {
        fill: #fefefd;
      }

      .cls-7 {
        fill: #3e7403;
      }

      .cls-8 {
        fill: #5a8f02;
      }

      .cls-9 {
        fill: #abce00;
      }

      .cls-10 {
        fill: #539300;
      }

      .cls-11 {
        fill: #fefffe;
      }

      .cls-12 {
        fill: #3e7302;
      }

      .cls-13 {
        fill: #7aac04;
      }

      .cls-14 {
        fill: #acce04;
      }

      .cls-15 {
        fill: #7bad02;
      }

      .cls-16 {
        fill: #38513a;
      }

      .cls-17 {
        fill: #fffffd;
      }

      .cls-18 {
        fill: #7bab01;
      }

      .cls-19 {
        fill: #fefffd;
      }

      .cls-20 {
        fill: #599100;
      }

      .cls-21 {
        fill: #226400;
      }

      .cls-22 {
        fill: #5b9103;
      }

      .cls-23 {
        fill: #314931;
      }
    </style>
  </defs>
  <g id="Calque_1-2" data-name="Calque_1">
    <g>
      <path class="cls-12" d="M261.2,184.53l-26.45-4.56-19.16,95.78c29.83,3.93,48.75-2.38,52.63-22.84.72-3.82.73-7.75.24-11.61l-7.26-56.76Z"/>
      <path class="cls-3" d="M132.59,203.31l-43.33-3.65-3.74,76.77c22.78-.98,46.57-5.8,47.07-21.66v-51.46Z"/>
      <g>
        <path class="cls-15" d="M58.8,178.84l54.65,18.5-2.41,60.8c-.16,3.98-1.85,7.77-4.81,10.44-15.21,13.74-59.97,11.21-59.97-16.17-1.31-27.66,1.52-52.96,12.54-73.57Z"/>
        <path class="cls-4" d="M113.18,204.08c-18.41-9.79-36.59-15.77-55.27-23.52-2.89,5.28-5.21,11.81-7.18,19.1,24.39.16,44.55,7.87,61.67,24.15l.78-19.73Z"/>
        <path class="cls-5" d="M71.85,276.13c1.84-8.15,4.41-15.19,8.63-19.76,1.46-1.58,3.51-2.21,5.6-1.7,2.62.63,5.77,2.86,6.74,10.01l-20.98,11.46Z"/>
        <path class="cls-9" d="M110.92,248.67c-10.54-4.64-16.57-1.32-18.1,9.97v16.51c15.11-3.81,18.86-12.11,18.1-26.48Z"/>
      </g>
      <g>
        <path class="cls-13" d="M169.2,210.19l66.64-20.65c7.56,52.53,3.57,87.2-23.23,86.59-29.8,2.5-45.36-5.32-46.69-23.47-.25-18.69.3-34.66,3.28-42.47Z"/>
        <path class="cls-20" d="M166.45,225.91c24.81-12.6,51.38-15.98,72.78-6.08l-3.39-30.28-66.64,20.65c-1.49,4.3-2.52,9.36-2.75,15.72Z"/>
        <path class="cls-14" d="M238.67,242.58c-14.44-14.1-18.39.77-20.87,17.46l-5.02-9.75c-1.02-1.14-2.33-1.92-3.75-2.36-5.28-1.65-10.66,2.36-11.04,7.87l-1.43,20.64c27.8,1.09,37.72-.57,42.11-33.87Z"/>
      </g>
      <path class="cls-5" d="M92.83,264.67v10.48c-6.99,1.69-13.99,2.02-20.98.97l20.98-11.46Z"/>
      <path class="cls-2" d="M39.46,129.88c10.93-5.22,19.86-24.84,28.4-47.41.81-2.14,1.75-4.24,2.82-6.26,1.35-2.57,2.91-5.03,4.66-7.36C124.49,3.54,195.05,11,235.17,75.91c11.26,19.61,22.66,37.06,34.99,40.77-19.27,99.93-194.07,107.07-230.7,13.2Z"/>
      <path class="cls-10" d="M154.81,23.4c11.54,13.81,11.06,29.09,3.72,49.77-3,8.46-7.75,16.27-14.25,22.47-25.63,24.47-64.04,13.51-73.6-19.42,20.71-32.82,48.65-50.64,84.13-52.81Z"/>
      <path class="cls-10" d="M76.13,128.1c-3.36,7.08-6.08,12.98-14.57,7.73-5.23-3.23-5.91-12.98-1.49-18.87s10.24-8.16,13.78-6.33c5.29,2.73,5.44,10.82,2.28,17.47Z"/>
      <path class="cls-10" d="M90.48,147.54c-1.54-3.9-1.89-8.22-.69-12.24,2.65-8.89,10.93-11.84,23.94-8.5,20.52,6.04,26.71,16.82,22.2,30.17-9.65,14-24.98,20.37-34.59,8.21-4.57-5.82-8.5-11.68-10.85-17.64Z"/>
      <path class="cls-10" d="M130.92,194.57c25.39,3.74,52.03,1.73,75.02-7.63-8.36-13.73-20.51-27.51-38.34-25.95-17.94,2.76-30.88,17.01-36.68,33.58Z"/>
      <path class="cls-10" d="M238.5,115.65c.42-6.18-1.59-12.39-5.87-16.87-14.57-15.27-46.06-4.94-48.58,12.72-2.76,16.88,2.14,30.32,20.1,37.87,20.4,9.04,32.71-9.6,34.36-33.71Z"/>
      <path class="cls-10" d="M194.22,34.52c-9.12,8-11.47,17.43-.7,29.63,12.01,9.47,23.54,12.39,34.03.59-10.33-12.57-21.26-23.21-33.33-30.23Z"/>
      <path class="cls-8" d="M35.29,157.68l-8.4,7.31c8.25,4.64,14.66,9.89,16.49,16.64l11.82-4.2c-3.9-8.81-10.41-15.51-19.91-19.76Z"/>
      <path class="cls-18" d="M6.75,174.59c7.86-.94,13.77-4.18,20.68-10.07,7.39,4.68,14,10,15.94,17.12-15.65,3.46-29.65,4.37-40.83-.48-3.34-1.64-3.31-3.34-.39-5.07,1.4-.83,2.98-1.31,4.6-1.5Z"/>
      <path class="cls-13" d="M247.23,181.9c47.82,14.55,94.27-20.07,88.54-75.76C408.86,102.62,416.24,15.82,336.53,0c-42.43-.2-66.21,20.01-60.51,72.48,6.37,18.97,13.01,38.27,9.1,44.34l-37.9,65.08Z"/>
      <path class="cls-22" d="M282.7,132.01c4.12,23.68,14.01,37.49,34.55,33.1-29.24,24.08-50.54,23.24-70.03,16.78"/>
      <path class="cls-1" d="M297.39,95.52c14.24,6.26,27.99,11.6,38.37,10.61v16.33c-16.62-2.8-29.89-11-38.37-26.94Z"/>
      <path class="cls-7" d="M329.88,82.06c5.1,8.37,14.93,10.55,19.57.23.46-1.02,1.73-1.48,2.85-1.5,1.98-.03,2.34,1.9,1,5.9-7.85,12.73-18.06,11.17-26.63-.51-1.36-2.48-1.41-4.14-.18-5,1.12-.77,2.67-.29,3.38.87Z"/>
      <path class="cls-21" d="M39.46,129.88c-6.79-9.57-20.65-1.04-16.85,10.19,42.39,74.68,160.21,93.48,224.62,41.82,18.05-14.48,31.91-34.5,38.74-60.37-.38-11.18-10.4-15.47-18.27-5.77l2.46.93c-22.94,108.35-199.48,89.56-230.7,13.2Z"/>
      <circle class="cls-17" cx="309.92" cy="48.81" r="20.81"/>
      <path class="cls-6" d="M385.33,49.65c0-10.09-7.01-18.05-17.1-18.05s-18.27,8.18-18.27,18.27c0,5.84,2.74,11.53,7.01,15.29,3.1,2.74,7.02,4.45,11.27,4.45,10.09,0,17.1-9.87,17.1-19.96Z"/>
      <path class="cls-16" d="M370.16,53.77c2.51-8.92,3.22-20.58-2.96-22.17-3.53-.91-13.65,3.66-16.16,12.58s2.42,20,5.93,20.98,10.68-2.48,13.19-11.4Z"/>
      <circle class="cls-19" cx="370.36" cy="42.69" r="3.71"/>
      <path class="cls-23" d="M314.94,47.57c-.99,8.12-12.87,21.62-18.27,17.47-7.35-5.65-10.5-17.28-4.36-27.29,4.96-8.09,19.27-16.09,22.41-.97,1.03,4.97,1.26,2.24.22,10.79Z"/>
      <ellipse class="cls-11" cx="313.91" cy="41.37" rx="5.34" ry="3.89"/>
    </g>
  </g>
</svg>